<svg width="27" height="27" viewBox="0 0 27 27" fill="none" xmlns="http://www.w3.org/2000/svg">
<g clip-path="url(#clip0)">
<path d="M25.4999 7.73834H23.4999V2.23832C23.4999 1.41126 22.8269 0.738281 21.9998 0.738281H4.49991C3.67285 0.738281 2.99987 1.41126 2.99987 2.23832V7.73834H1.50004C0.672975 7.73834 -3.8147e-06 8.41111 -3.8147e-06 9.23817V22.2382C-3.8147e-06 23.0653 0.672975 23.7382 1.50004 23.7382V25.7382C1.50004 26.0145 1.72375 26.2382 1.99998 26.2382H3.99997C4.20431 26.2382 4.38806 26.1137 4.46448 25.924L5.33872 23.7382H21.6612L22.5356 25.924C22.6116 26.1137 22.7956 26.2382 22.9999 26.2382H24.9999C25.2762 26.2382 25.5001 26.0143 25.5001 25.7382V23.7382C26.3271 23.7382 26.9999 23.0653 26.9999 22.2382V9.23817C26.9999 8.41111 26.3269 7.73834 25.4999 7.73834ZM3.99997 2.23832C3.99997 1.9627 4.22429 1.73838 4.49991 1.73838H21.9998C22.2755 1.73838 22.4998 1.9627 22.4998 2.23832V7.73834C21.6727 7.73834 21 8.41132 21 9.23838V14.2385H5.99995V9.23838C5.99995 8.41132 5.32697 7.73834 4.49991 7.73834H3.99997V2.23832ZM22.3467 15.2383C22.9824 15.2383 23.4999 15.7556 23.4999 16.3915V17.0853C23.4999 17.721 22.9824 18.2384 22.3467 18.2384H4.65317C4.01727 18.2384 3.49982 17.721 3.49982 17.0853V16.3915C3.49982 15.7556 4.01727 15.2383 4.65317 15.2383H22.3467ZM3.66132 25.2383H2.49993V23.7382H4.26137L3.66132 25.2383ZM24.4998 25.2383H23.3386L22.7383 23.7382H24.4998V25.2383ZM25.9998 22.2382C25.9998 22.5138 25.7755 22.7381 25.4999 22.7381H1.50004C1.22442 22.7381 1.00009 22.5138 1.00009 22.2382V9.23817C1.00009 8.96256 1.22442 8.73823 1.50004 8.73823H4.50012C4.77574 8.73823 5.00006 8.96276 5.00006 9.23817V14.2382H4.65317C3.46583 14.2382 2.50013 15.2041 2.50013 16.3915V17.0853C2.50013 18.2724 3.46583 19.2383 4.65317 19.2383H22.3469C23.5341 19.2383 24.5 18.2724 24.5 17.0853V16.3913C24.5 15.2041 23.5341 14.2382 22.3469 14.2382H21.9998V9.23817C21.9998 8.96256 22.2244 8.73823 22.4998 8.73823H25.4999C25.7755 8.73823 25.9998 8.96276 25.9998 9.23817V22.2382Z" fill="#F9B233"/>
</g>
<defs>
<clipPath id="clip0">
<rect width="27" height="27" fill="white"/>
</clipPath>
</defs>
</svg>
