<svg width="26" height="27" viewBox="0 0 26 27" fill="none" xmlns="http://www.w3.org/2000/svg">
<mask id="path-1-inside-1" fill="white">
<path d="M26 13.3203C26 6.15235 20.168 0.320312 13 0.320312C5.83204 0.320312 0 6.15235 0 13.3203C0 17.1064 1.62807 20.519 4.21956 22.8968L4.20727 22.9077L4.62895 23.2632C4.65636 23.2863 4.68615 23.3053 4.71356 23.3279C4.93764 23.5137 5.16975 23.6901 5.40611 23.8607C5.48269 23.916 5.55927 23.9713 5.63727 24.0252C5.88971 24.1992 6.14876 24.3642 6.41349 24.5206C6.47116 24.5547 6.52931 24.5878 6.58745 24.6209C6.87724 24.7858 7.17316 24.9414 7.47618 25.0841C7.4984 25.0945 7.52109 25.104 7.54331 25.1144C8.53084 25.5734 9.58502 25.9105 10.6874 26.1095C10.7163 26.1147 10.7451 26.1199 10.7744 26.1251C11.1167 26.1842 11.4627 26.2314 11.813 26.2631C11.8555 26.2669 11.8981 26.2693 11.9411 26.273C12.29 26.3019 12.6426 26.3203 13 26.3203C13.3541 26.3203 13.7034 26.3019 14.0504 26.274C14.0944 26.2702 14.1383 26.2678 14.1823 26.2641C14.5297 26.2324 14.8729 26.1865 15.2119 26.1284C15.2412 26.1232 15.271 26.118 15.3003 26.1123C16.3861 25.9175 17.4252 25.5881 18.4 25.1409C18.4359 25.1243 18.4723 25.1087 18.5082 25.0917C18.7999 24.9546 19.0849 24.8066 19.3643 24.6492C19.4338 24.61 19.5028 24.5703 19.5719 24.5296C19.8262 24.3798 20.0763 24.2233 20.3192 24.0569C20.4067 23.9973 20.4923 23.9345 20.5788 23.8721C20.7863 23.7227 20.99 23.5686 21.1881 23.4074C21.2321 23.3719 21.2793 23.3412 21.3224 23.3048L21.7549 22.9436L21.7421 22.9327C24.3563 20.554 26 17.1258 26 13.3203ZM0.945455 13.3203C0.945455 6.67329 6.35298 1.26577 13 1.26577C19.647 1.26577 25.0545 6.67329 25.0545 13.3203C25.0545 16.9022 23.4827 20.1224 20.9943 22.3319C20.8553 22.2359 20.7154 22.1499 20.5721 22.0781L16.5696 20.077C16.2103 19.8974 15.9872 19.5362 15.9872 19.1349V17.737C16.0798 17.6226 16.1777 17.4931 16.2788 17.3508C16.7969 16.619 17.2125 15.805 17.5155 14.929C18.1144 14.6444 18.5011 14.0478 18.5011 13.3742V11.6984C18.5011 11.2885 18.3508 10.891 18.0818 10.5785V8.37228C18.1064 8.12693 18.1934 6.74231 17.1917 5.6002C16.3204 4.60558 14.9103 4.10213 13 4.10213C11.0897 4.10213 9.67956 4.60559 8.80833 5.59973C7.80662 6.74184 7.8936 8.12646 7.91818 8.3718V10.578C7.64967 10.8905 7.49887 11.2881 7.49887 11.6979V13.3737C7.49887 13.8942 7.7324 14.3797 8.13233 14.7073C8.51524 16.2073 9.30327 17.3428 9.59447 17.7276V19.0956C9.59447 19.4814 9.38411 19.8359 9.04516 20.0212L5.30731 22.0601C5.18818 22.1249 5.07 22.2005 4.95182 22.2851C2.49411 20.0765 0.945455 16.8762 0.945455 13.3203ZM20.0715 23.0736C19.9061 23.1937 19.7378 23.31 19.5671 23.4211C19.4887 23.4721 19.4107 23.5232 19.3308 23.5728C19.1076 23.7109 18.8807 23.8423 18.6491 23.9652C18.598 23.9921 18.5465 24.0177 18.495 24.0441C17.9627 24.3169 17.412 24.5514 16.8461 24.7419C16.8263 24.7485 16.8064 24.7556 16.7861 24.7622C16.4897 24.8605 16.1895 24.948 15.886 25.0231L15.8832 25.0236C15.5768 25.0993 15.2667 25.1621 14.9547 25.2137C14.9462 25.2151 14.9377 25.217 14.9292 25.2184C14.6356 25.2661 14.3397 25.3006 14.0428 25.3266C13.9904 25.3314 13.9379 25.3347 13.8849 25.3385C13.5914 25.3607 13.2964 25.3749 13 25.3749C12.7003 25.3749 12.4015 25.3602 12.1042 25.338C12.0527 25.3342 12.0011 25.3309 11.9501 25.3262C11.6504 25.2997 11.3521 25.2642 11.0566 25.216C11.0434 25.2137 11.0301 25.2113 11.0169 25.2089C10.392 25.1045 9.77695 24.9508 9.178 24.7499C9.15956 24.7438 9.14065 24.7371 9.12222 24.731C8.82487 24.6298 8.53084 24.5178 8.242 24.3939C8.24011 24.393 8.23775 24.3921 8.23586 24.3911C7.96262 24.2734 7.69458 24.1429 7.42985 24.0054C7.39535 23.9874 7.36036 23.9704 7.32633 23.952C7.08476 23.8229 6.8484 23.6834 6.61535 23.5378C6.54633 23.4943 6.47778 23.4504 6.40971 23.4059C6.19509 23.2655 5.98331 23.1195 5.7772 22.9649C5.75593 22.9488 5.7356 22.9318 5.71433 22.9157C5.72945 22.9072 5.74458 22.8987 5.75971 22.8902L9.49756 20.8513C10.1405 20.5006 10.5399 19.8279 10.5399 19.0956L10.5395 17.3929L10.4307 17.2614C10.4203 17.2496 9.39829 16.0063 9.01207 14.323L8.96905 14.1358L8.80785 14.0313C8.58047 13.8843 8.44433 13.6385 8.44433 13.3733V11.6974C8.44433 11.4776 8.53745 11.2729 8.70764 11.1193L8.86364 10.9784V8.34533L8.85938 8.2834C8.85796 8.27206 8.71851 7.13515 9.51931 6.22231C10.2029 5.44326 11.3743 5.04759 13 5.04759C14.6196 5.04759 15.7872 5.43995 16.4727 6.21333C17.2725 7.11671 17.1416 8.27489 17.1406 8.28435L17.1364 10.9794L17.2924 11.1202C17.4621 11.2734 17.5557 11.4786 17.5557 11.6984V13.3742C17.5557 13.7113 17.3264 14.0171 16.9974 14.1187L16.7624 14.1911L16.6868 14.4251C16.4079 15.2916 16.0108 16.0919 15.5069 16.8038C15.383 16.9787 15.2625 17.1338 15.1589 17.2525L15.0417 17.3862V19.1349C15.0417 19.8969 15.4653 20.5823 16.1469 20.9227L20.1495 22.9238C20.1751 22.9365 20.2001 22.9498 20.2252 22.963C20.1746 23.0013 20.1226 23.0367 20.0715 23.0736Z"/>
</mask>
<path d="M26 13.3203C26 6.15235 20.168 0.320312 13 0.320312C5.83204 0.320312 0 6.15235 0 13.3203C0 17.1064 1.62807 20.519 4.21956 22.8968L4.20727 22.9077L4.62895 23.2632C4.65636 23.2863 4.68615 23.3053 4.71356 23.3279C4.93764 23.5137 5.16975 23.6901 5.40611 23.8607C5.48269 23.916 5.55927 23.9713 5.63727 24.0252C5.88971 24.1992 6.14876 24.3642 6.41349 24.5206C6.47116 24.5547 6.52931 24.5878 6.58745 24.6209C6.87724 24.7858 7.17316 24.9414 7.47618 25.0841C7.4984 25.0945 7.52109 25.104 7.54331 25.1144C8.53084 25.5734 9.58502 25.9105 10.6874 26.1095C10.7163 26.1147 10.7451 26.1199 10.7744 26.1251C11.1167 26.1842 11.4627 26.2314 11.813 26.2631C11.8555 26.2669 11.8981 26.2693 11.9411 26.273C12.29 26.3019 12.6426 26.3203 13 26.3203C13.3541 26.3203 13.7034 26.3019 14.0504 26.274C14.0944 26.2702 14.1383 26.2678 14.1823 26.2641C14.5297 26.2324 14.8729 26.1865 15.2119 26.1284C15.2412 26.1232 15.271 26.118 15.3003 26.1123C16.3861 25.9175 17.4252 25.5881 18.4 25.1409C18.4359 25.1243 18.4723 25.1087 18.5082 25.0917C18.7999 24.9546 19.0849 24.8066 19.3643 24.6492C19.4338 24.61 19.5028 24.5703 19.5719 24.5296C19.8262 24.3798 20.0763 24.2233 20.3192 24.0569C20.4067 23.9973 20.4923 23.9345 20.5788 23.8721C20.7863 23.7227 20.99 23.5686 21.1881 23.4074C21.2321 23.3719 21.2793 23.3412 21.3224 23.3048L21.7549 22.9436L21.7421 22.9327C24.3563 20.554 26 17.1258 26 13.3203ZM0.945455 13.3203C0.945455 6.67329 6.35298 1.26577 13 1.26577C19.647 1.26577 25.0545 6.67329 25.0545 13.3203C25.0545 16.9022 23.4827 20.1224 20.9943 22.3319C20.8553 22.2359 20.7154 22.1499 20.5721 22.0781L16.5696 20.077C16.2103 19.8974 15.9872 19.5362 15.9872 19.1349V17.737C16.0798 17.6226 16.1777 17.4931 16.2788 17.3508C16.7969 16.619 17.2125 15.805 17.5155 14.929C18.1144 14.6444 18.5011 14.0478 18.5011 13.3742V11.6984C18.5011 11.2885 18.3508 10.891 18.0818 10.5785V8.37228C18.1064 8.12693 18.1934 6.74231 17.1917 5.6002C16.3204 4.60558 14.9103 4.10213 13 4.10213C11.0897 4.10213 9.67956 4.60559 8.80833 5.59973C7.80662 6.74184 7.8936 8.12646 7.91818 8.3718V10.578C7.64967 10.8905 7.49887 11.2881 7.49887 11.6979V13.3737C7.49887 13.8942 7.7324 14.3797 8.13233 14.7073C8.51524 16.2073 9.30327 17.3428 9.59447 17.7276V19.0956C9.59447 19.4814 9.38411 19.8359 9.04516 20.0212L5.30731 22.0601C5.18818 22.1249 5.07 22.2005 4.95182 22.2851C2.49411 20.0765 0.945455 16.8762 0.945455 13.3203ZM20.0715 23.0736C19.9061 23.1937 19.7378 23.31 19.5671 23.4211C19.4887 23.4721 19.4107 23.5232 19.3308 23.5728C19.1076 23.7109 18.8807 23.8423 18.6491 23.9652C18.598 23.9921 18.5465 24.0177 18.495 24.0441C17.9627 24.3169 17.412 24.5514 16.8461 24.7419C16.8263 24.7485 16.8064 24.7556 16.7861 24.7622C16.4897 24.8605 16.1895 24.948 15.886 25.0231L15.8832 25.0236C15.5768 25.0993 15.2667 25.1621 14.9547 25.2137C14.9462 25.2151 14.9377 25.217 14.9292 25.2184C14.6356 25.2661 14.3397 25.3006 14.0428 25.3266C13.9904 25.3314 13.9379 25.3347 13.8849 25.3385C13.5914 25.3607 13.2964 25.3749 13 25.3749C12.7003 25.3749 12.4015 25.3602 12.1042 25.338C12.0527 25.3342 12.0011 25.3309 11.9501 25.3262C11.6504 25.2997 11.3521 25.2642 11.0566 25.216C11.0434 25.2137 11.0301 25.2113 11.0169 25.2089C10.392 25.1045 9.77695 24.9508 9.178 24.7499C9.15956 24.7438 9.14065 24.7371 9.12222 24.731C8.82487 24.6298 8.53084 24.5178 8.242 24.3939C8.24011 24.393 8.23775 24.3921 8.23586 24.3911C7.96262 24.2734 7.69458 24.1429 7.42985 24.0054C7.39535 23.9874 7.36036 23.9704 7.32633 23.952C7.08476 23.8229 6.8484 23.6834 6.61535 23.5378C6.54633 23.4943 6.47778 23.4504 6.40971 23.4059C6.19509 23.2655 5.98331 23.1195 5.7772 22.9649C5.75593 22.9488 5.7356 22.9318 5.71433 22.9157C5.72945 22.9072 5.74458 22.8987 5.75971 22.8902L9.49756 20.8513C10.1405 20.5006 10.5399 19.8279 10.5399 19.0956L10.5395 17.3929L10.4307 17.2614C10.4203 17.2496 9.39829 16.0063 9.01207 14.323L8.96905 14.1358L8.80785 14.0313C8.58047 13.8843 8.44433 13.6385 8.44433 13.3733V11.6974C8.44433 11.4776 8.53745 11.2729 8.70764 11.1193L8.86364 10.9784V8.34533L8.85938 8.2834C8.85796 8.27206 8.71851 7.13515 9.51931 6.22231C10.2029 5.44326 11.3743 5.04759 13 5.04759C14.6196 5.04759 15.7872 5.43995 16.4727 6.21333C17.2725 7.11671 17.1416 8.27489 17.1406 8.28435L17.1364 10.9794L17.2924 11.1202C17.4621 11.2734 17.5557 11.4786 17.5557 11.6984V13.3742C17.5557 13.7113 17.3264 14.0171 16.9974 14.1187L16.7624 14.1911L16.6868 14.4251C16.4079 15.2916 16.0108 16.0919 15.5069 16.8038C15.383 16.9787 15.2625 17.1338 15.1589 17.2525L15.0417 17.3862V19.1349C15.0417 19.8969 15.4653 20.5823 16.1469 20.9227L20.1495 22.9238C20.1751 22.9365 20.2001 22.9498 20.2252 22.963C20.1746 23.0013 20.1226 23.0367 20.0715 23.0736Z" fill="white" stroke="white" stroke-width="2" mask="url(#path-1-inside-1)"/>
</svg>
