<svg width="28" height="20" viewBox="0 0 28 20" fill="none" xmlns="http://www.w3.org/2000/svg">
<path d="M26.8464 0.994812H1.15358C0.516469 0.994812 0 1.51128 0 2.14839V17.8516C0 18.4887 0.516469 19.0052 1.15358 19.0052H26.8464C27.4835 19.0052 28 18.4887 28 17.8516V2.14839C28 1.51128 27.4835 0.994812 26.8464 0.994812ZM1.15358 1.90077H26.8464C26.9548 1.90129 27.0503 1.97226 27.082 2.07592L14 10.2476L0.918033 2.07592C0.949741 1.97226 1.04517 1.90129 1.15358 1.90077ZM0.905953 3.1087L10.3158 8.98532L0.905953 16.4504V3.1087ZM27.094 17.8455C27.094 17.9823 26.9831 18.0932 26.8464 18.0932H1.15358C1.01686 18.0932 0.905953 17.9823 0.905953 17.8455V17.604L11.1311 9.52285L13.7584 11.1656C13.906 11.2587 14.094 11.2587 14.2416 11.1656L16.8689 9.52285L27.094 17.604V17.8455ZM27.094 16.4504L17.6601 9.00948L27.094 3.16306V16.4504Z" fill="white"/>
</svg>
