<svg width="26" height="26" viewBox="0 0 26 26" fill="none" xmlns="http://www.w3.org/2000/svg">
<path d="M10.5871 9.13782C10.4984 9.2338 10.4406 9.29573 10.3972 9.34218C10.4777 9.25547 10.5871 9.13782 10.5871 9.13782Z" fill="white"/>
<path d="M14.529 9.87009C14.8242 10.2347 14.9707 10.6646 14.9707 11.1596C14.9707 11.5139 14.8695 11.8547 14.6683 12.184C14.5578 12.3705 14.4124 12.5507 14.2307 12.7226L13.6258 13.3223C13.0457 13.8941 12.6711 14.4006 12.4997 14.8439C12.3284 15.2862 12.2427 15.8693 12.2427 16.5923H13.5886C13.5886 15.9553 13.6609 15.4736 13.8044 15.1474C13.9478 14.8211 14.2616 14.4234 14.7457 13.9521C15.4114 13.3047 15.8532 12.8138 16.072 12.4802C16.2908 12.1467 16.4013 11.7117 16.4013 11.1751C16.4013 10.2906 16.103 9.56347 15.5054 8.99379C14.9078 8.42412 14.113 8.14032 13.12 8.14032C12.0466 8.14032 11.2023 8.47278 10.5871 9.13778C9.9719 9.80277 9.66431 10.6811 9.66431 11.7738H11.0103C11.035 11.1161 11.1393 10.6127 11.3199 10.2637C11.6419 9.63701 12.2241 9.32316 13.0663 9.32316C13.7466 9.3232 14.2348 9.5055 14.529 9.87009Z" fill="white"/>
<path d="M13.7167 17.8507H12.2118V19.4273H13.7167V17.8507Z" fill="white"/>
<circle cx="13" cy="13" r="12.5" stroke="white"/>
</svg>
