<svg width="33" height="33" viewBox="0 0 33 33" fill="none" xmlns="http://www.w3.org/2000/svg">
<g clip-path="url(#clip0)">
<path d="M32.9364 18.0243C32.6401 15.0441 31.3087 12.2344 29.1872 10.1129C27.3743 8.30003 25.1552 7.13502 22.8203 6.617V4.97935C23.774 4.7421 24.4828 3.87886 24.4828 2.85282C24.4828 1.64443 23.4998 0.661377 22.2914 0.661377H17.6507C16.4423 0.661377 15.4593 1.64443 15.4593 2.85282C15.4593 3.8788 16.1681 4.74203 17.1217 4.97935V6.62158C14.794 7.14179 12.5823 8.30519 10.7745 10.113C10.3789 10.5086 10.014 10.9236 9.68011 11.355C9.66393 11.3537 9.64775 11.3525 9.63125 11.3525H5.03819C4.68227 11.3525 4.39364 11.6411 4.39364 11.9971C4.39364 12.353 4.68227 12.6416 5.03819 12.6416H8.80308C8.3305 13.4328 7.94945 14.2636 7.65941 15.119H0.644541C0.288626 15.119 0 15.4075 0 15.7635C0 16.1195 0.288626 16.408 0.644541 16.408H7.29518C7.10942 17.2234 7.00281 18.0533 6.97529 18.8855H4.12506C3.76915 18.8855 3.48052 19.174 3.48052 19.53C3.48052 19.886 3.76915 20.1745 4.12506 20.1745H6.99585C7.05025 21.0088 7.18438 21.8387 7.3983 22.652H3.22271C2.86679 22.652 2.57817 22.9405 2.57817 23.2965C2.57817 23.6525 2.86679 23.941 3.22271 23.941H7.80965C8.44194 25.6137 9.43009 27.1814 10.7745 28.5258C12.898 30.6493 15.7105 31.9811 18.6938 32.2758C19.1196 32.3178 19.5457 32.3386 19.9712 32.3386C22.4864 32.3386 24.9695 31.6108 27.0765 30.2387C27.3748 30.0444 27.4592 29.6451 27.2649 29.3468C27.0707 29.0485 26.6714 28.9642 26.3731 29.1584C21.7609 32.1618 15.5841 31.5124 11.686 27.6143C7.11219 23.0405 7.11219 15.5984 11.686 11.0246C16.2597 6.45084 23.7018 6.45084 28.2756 11.0246C32.1686 14.9176 32.8215 21.0891 29.8281 25.699C29.6342 25.9976 29.7191 26.3968 30.0176 26.5906C30.3163 26.7845 30.7154 26.6996 30.9092 26.4011C32.5085 23.938 33.2285 20.9631 32.9364 18.0243ZM16.7483 2.85288C16.7483 2.3553 17.1531 1.95052 17.6507 1.95052H22.2914C22.789 1.95052 23.1938 2.3553 23.1938 2.85288C23.1938 3.35047 22.789 3.75524 22.2914 3.75524H22.1758H17.7663H17.6507C17.1531 3.75524 16.7483 3.3504 16.7483 2.85288ZM18.4108 6.39999V5.04432H21.5312V6.39767C20.4951 6.27443 19.4468 6.2752 18.4108 6.39999Z" fill="#F9B233"/>
<path d="M28.7317 27.4252C28.5616 27.4252 28.3959 27.4941 28.2761 27.614C28.1556 27.7339 28.0872 27.9002 28.0872 28.0697C28.0872 28.2392 28.1556 28.4055 28.2761 28.5254C28.3959 28.6459 28.5616 28.7142 28.7317 28.7142C28.9012 28.7142 29.0669 28.6459 29.1874 28.5254C29.3073 28.4055 29.3762 28.2392 29.3762 28.0697C29.3762 27.9002 29.3073 27.7339 29.1874 27.614C29.0669 27.4941 28.9012 27.4252 28.7317 27.4252Z" fill="#F9B233"/>
<path d="M19.9808 9.32062C14.4676 9.32062 9.98214 13.806 9.98214 19.3193C9.98214 24.8327 14.4676 29.318 19.9808 29.318C25.4941 29.318 29.9796 24.8327 29.9796 19.3193C29.9796 13.806 25.4941 9.32062 19.9808 9.32062ZM19.9808 28.0289C15.1783 28.0289 11.2712 24.1218 11.2712 19.3193C11.2712 14.5168 15.1783 10.6097 19.9808 10.6097C24.7834 10.6097 28.6905 14.5168 28.6905 19.3193C28.6905 24.1218 24.7834 28.0289 19.9808 28.0289Z" fill="#F9B233"/>
<path d="M24.058 14.3307L20.8655 17.523C20.5986 17.391 20.2983 17.3164 19.9808 17.3164C19.6633 17.3164 19.3631 17.391 19.0961 17.523L17.6674 16.0943C17.4156 15.8426 17.0076 15.8426 16.7558 16.0943C16.5041 16.346 16.5041 16.7541 16.7558 17.0058L18.1846 18.4345C18.0525 18.7015 17.978 19.0018 17.978 19.3192C17.978 20.4236 18.8764 21.3221 19.9808 21.3221C21.0853 21.3221 21.9837 20.4236 21.9837 19.3192C21.9837 19.0018 21.9091 18.7015 21.7771 18.4345L24.8758 15.3358L24.9695 15.2422C25.2212 14.9905 25.2212 14.5824 24.9695 14.3307C24.7178 14.079 24.3098 14.079 24.058 14.3307ZM19.9808 20.0331C19.5873 20.0331 19.2671 19.7129 19.2671 19.3193C19.2671 18.9257 19.5873 18.6055 19.9808 18.6055C20.3744 18.6055 20.6946 18.9257 20.6946 19.3193C20.6946 19.7129 20.3744 20.0331 19.9808 20.0331Z" fill="#F9B233"/>
<path d="M26.8722 18.6826H26.275C25.9191 18.6826 25.6305 18.9712 25.6305 19.3272C25.6305 19.6831 25.9191 19.9717 26.275 19.9717H26.8722C27.2281 19.9717 27.5167 19.6831 27.5167 19.3272C27.5167 18.9712 27.2281 18.6826 26.8722 18.6826Z" fill="#F9B233"/>
<path d="M13.6866 18.6669H13.0895C12.7336 18.6669 12.4449 18.9555 12.4449 19.3115C12.4449 19.6674 12.7336 19.956 13.0895 19.956H13.6866C14.0425 19.956 14.3311 19.6674 14.3311 19.3115C14.3311 18.9555 14.0425 18.6669 13.6866 18.6669Z" fill="#F9B233"/>
<path d="M19.9887 13.6695C20.3446 13.6695 20.6332 13.381 20.6332 13.025V12.4279C20.6332 12.0719 20.3446 11.7834 19.9887 11.7834C19.6328 11.7834 19.3442 12.0719 19.3442 12.4279V13.025C19.3442 13.381 19.6328 13.6695 19.9887 13.6695Z" fill="#F9B233"/>
<path d="M19.973 24.9691C19.6171 24.9691 19.3284 25.2576 19.3284 25.6136V26.2107C19.3284 26.5667 19.6171 26.8552 19.973 26.8552C20.3289 26.8552 20.6175 26.5667 20.6175 26.2107V25.6136C20.6175 25.2576 20.3289 24.9691 19.973 24.9691Z" fill="#F9B233"/>
<path d="M0.644531 22.6517C0.47502 22.6517 0.30873 22.7207 0.188848 22.8406C0.0689648 22.9605 0 23.1268 0 23.2963C0 23.4664 0.0689004 23.6321 0.188848 23.7519C0.308795 23.8718 0.47502 23.9408 0.644531 23.9408C0.814043 23.9408 0.980332 23.8718 1.10015 23.7519C1.22003 23.6321 1.28906 23.4658 1.28906 23.2963C1.28906 23.1268 1.2201 22.9605 1.10015 22.8406C0.980332 22.7207 0.814043 22.6517 0.644531 22.6517Z" fill="#F9B233"/>
</g>
<defs>
<clipPath id="clip0">
<rect width="33" height="33" fill="white"/>
</clipPath>
</defs>
</svg>
