<svg width="528" height="479" viewBox="0 0 528 479" fill="none" xmlns="http://www.w3.org/2000/svg">
<path d="M372.476 161.562C369.618 164.289 364.683 164.289 361.826 161.562C358.969 158.835 358.839 153.77 361.436 150.912C362.475 149.744 364.034 148.834 365.592 148.445C370.008 147.146 375.333 149.484 377.411 153.64C377.93 154.679 378.19 155.848 377.8 156.887C376.761 159.224 372.346 159.354 372.606 161.822" stroke="#D8D5D2" stroke-width="0.5" stroke-miterlimit="10"/>
<path d="M340.267 153.64C341.696 149.873 343.774 146.107 346.501 143.25C352.086 137.406 360.527 134.938 368.579 133.899C376.372 132.86 384.684 132.73 391.697 136.107C393.255 136.886 394.814 137.795 395.853 139.094C397.541 141.302 397.801 144.159 397.931 146.886C398.32 153.64 398.58 161.172 394.424 166.627C391.957 169.874 388.45 171.952 384.943 173.9C375.593 179.225 358.579 190.004 347.41 184.16C337.02 178.316 336.631 163.121 340.267 153.64Z" stroke="#D8D5D2" stroke-width="0.5" stroke-miterlimit="10"/>
<path d="M308.318 180.523C309.098 170.134 318.189 162.731 324.033 154.159C327.28 149.354 329.618 143.899 333.254 139.484C339.748 131.431 349.618 127.146 359.488 124.159C365.852 122.34 372.476 120.912 379.099 121.561C388.58 122.47 397.671 127.665 403.256 135.457C408.84 143.25 410.918 153.38 408.97 162.731C406.372 174.939 397.281 184.939 386.502 191.173C375.722 197.407 363.255 200.134 351.047 201.952C336.631 204.03 306.63 202.082 308.318 180.523Z" stroke="#D8D5D2" stroke-width="0.5" stroke-miterlimit="10"/>
<path d="M289.876 254.551C286.759 250.785 286.37 245.59 287.019 240.784C287.669 235.979 289.227 231.304 289.487 226.498C289.876 217.927 286.24 209.745 283.902 201.563C281.565 193.381 280.655 183.64 285.85 176.887C288.188 173.77 291.435 171.692 294.292 168.965C300.656 162.601 303.643 153.77 307.929 145.847C321.825 120.522 352.475 106.236 381.047 109.873C393.775 111.431 407.022 117.016 413.645 128.055C421.048 140.393 418.451 156.367 413.775 170.004C409.619 182.342 403.645 194.68 393.255 202.472C383.125 210.134 370.138 212.732 357.67 214.55C345.072 216.498 332.215 218.057 321.176 224.291C313.383 228.706 306.5 236.109 304.162 244.94C302.344 250.655 299.877 266.369 289.876 254.551Z" stroke="#D8D5D2" stroke-width="0.5" stroke-miterlimit="10"/>
<path d="M279.227 264.032C275.331 256.11 275.201 247.018 274.551 238.317C273.383 223.511 270.525 208.706 265.98 194.55C263.642 187.277 260.785 179.484 262.733 171.952C264.162 166.627 267.798 162.341 271.434 158.185C278.448 150.263 285.461 142.341 292.734 134.548C299.227 127.535 305.981 120.522 313.903 115.197C327.41 106.236 343.774 102.859 359.748 99.6126C371.696 97.145 384.424 94.8073 395.723 99.4827C408.191 104.548 415.853 116.886 422.736 128.574C425.724 133.509 428.711 138.704 429.49 144.419C430.789 152.601 427.542 160.653 424.295 168.186C419.62 179.484 414.944 190.783 410.269 202.082C408.97 205.069 407.671 208.186 405.593 210.654C403.256 213.251 400.009 214.81 396.892 216.368C384.684 222.343 372.086 227.408 359.099 231.564C347.41 235.33 334.812 238.707 325.981 247.278C314.422 258.447 294.682 295.461 279.227 264.032Z" stroke="#D8D5D2" stroke-width="0.5" stroke-miterlimit="10"/>
<path d="M268.837 258.447C266.499 246.499 267.928 234.031 264.941 222.213C262.863 213.771 258.577 205.849 252.473 199.485C246.629 193.251 238.317 186.627 239.875 178.186C240.785 172.731 245.59 168.965 249.096 164.809C254.811 157.926 257.538 148.575 256.499 139.743C255.33 129.873 250.395 118.184 257.408 111.171C261.304 107.275 267.408 106.756 272.863 106.236C311.955 102.47 348.579 83.1187 387.801 82.5992C400.009 82.4693 414.035 85.1967 419.879 95.8463C423.646 102.73 422.996 111.301 426.243 118.444C428.97 124.548 434.425 129.094 438.841 134.159C443.256 139.224 447.023 145.847 445.464 152.471C443.776 160.004 436.113 164.159 430.919 170.004C421.957 180.134 421.178 194.68 419.749 208.057C419.36 211.693 418.84 215.459 416.762 218.446C415.204 220.654 412.736 222.213 410.399 223.641C381.047 240.525 342.865 242.733 319.617 267.408C315.332 271.954 311.695 277.279 306.63 281.045C289.487 294.162 271.954 275.071 268.837 258.447Z" stroke="#D8D5D2" stroke-width="0.5" stroke-miterlimit="10"/>
<path d="M336.631 271.954C363.774 258.058 399.359 260.006 420.399 237.927C428.711 229.226 433.516 217.407 433.776 205.329C433.906 196.368 431.828 186.627 435.984 178.705C440.14 170.913 449.49 167.146 458.452 166.627C467.283 166.107 476.114 168.185 484.946 168.705C492.348 169.224 501.05 168.056 504.946 161.692C509.881 153.51 502.998 142.99 495.076 137.665C487.154 132.341 477.283 128.704 472.348 120.522C468.192 113.639 467.413 103.639 460.14 100.262C456.374 98.5735 451.958 99.3528 447.932 99.2229C437.542 98.7034 427.802 91.0409 424.944 81.0407C423.126 74.547 424.035 67.404 422.737 60.7805C421.438 54.157 416.633 47.014 409.879 47.1438C404.944 47.1438 400.788 50.9101 396.892 54.0271C385.593 62.9883 371.567 68.3131 357.281 69.0924C347.54 69.6119 337.67 68.1833 328.189 70.0015C315.332 72.5989 304.292 81.1706 291.435 84.2875C276.11 88.0538 257.538 84.807 246.889 96.3657C235.719 108.444 240.525 129.613 229.486 141.691C225.459 146.107 219.615 148.834 216.498 153.899C213.251 159.354 213.771 166.367 216.239 172.082C218.576 177.926 222.602 182.991 226.239 188.186C237.668 204.939 244.811 224.68 246.759 244.94C248.187 259.486 247.018 274.422 250.915 288.578C251.954 292.344 253.512 296.24 256.629 298.708C259.226 300.656 262.473 301.435 265.72 301.825C292.344 304.942 314.422 283.253 336.631 271.954Z" stroke="#D8D5D2" stroke-width="0.5" stroke-miterlimit="10"/>
<path d="M332.345 288.188C348.839 279.097 366.631 272.344 385.073 268.188C405.723 263.512 429.75 260.525 441.438 242.862C452.477 226.109 448.581 200.654 464.296 188.056C475.595 179.095 492.348 180.913 504.557 173.25C509.492 170.134 513.388 165.718 516.375 160.653C525.466 145.588 526.375 125.847 518.583 110.132C515.726 104.418 511.829 99.2229 509.751 93.1189C507.673 87.1447 507.803 79.6121 512.349 75.0665C517.674 69.7417 527.284 69.8716 531.44 63.6377C534.817 58.5727 532.609 51.2998 527.934 47.5334C523.258 43.7671 516.894 42.7281 510.79 42.9879C494.686 43.7671 479.491 52.3388 463.387 51.5595C442.737 50.3907 424.295 33.8968 403.905 36.6241C387.801 38.7021 375.333 52.2089 359.488 55.8453C345.462 59.0921 330.657 54.4167 316.5 56.7544C299.227 59.6116 284.682 72.4691 267.279 74.9366C257.538 76.3653 245.979 74.8068 239.226 81.8199C236.369 84.807 234.81 88.9629 233.512 92.8591C228.576 107.795 224.55 123.379 215.07 135.587C211.693 140.003 207.537 143.769 204.29 148.315C195.589 160.263 193.641 176.627 199.225 190.394C201.563 196.108 205.069 201.303 208.186 206.628C219.226 225.2 226.498 246.239 229.096 267.668C230.135 276.629 230.654 286.24 236.109 293.383C240.265 298.838 246.759 302.214 251.434 307.15C257.538 313.643 261.694 323.903 270.655 324.682C276.889 325.332 280.785 320.916 284.682 316.89C289.747 311.565 290.266 310.786 297.149 307.539C309.357 301.825 320.526 294.682 332.345 288.188Z" stroke="#D8D5D2" stroke-width="0.5" stroke-miterlimit="10"/>
<path d="M372.476 363.385C368.45 361.826 364.294 359.229 363.125 355.073C362.216 351.956 363.255 348.579 364.683 345.722C369.229 336.891 378.32 331.306 387.151 326.76C403.386 318.578 420.789 312.604 438.581 309.098C444.685 307.929 450.919 307.02 457.153 308.059C463.257 309.228 469.231 312.604 472.088 318.189C475.985 325.981 472.608 335.852 466.244 341.826C459.88 347.8 451.439 350.787 443.127 353.384C420.918 360.527 394.944 371.826 372.476 363.385Z" stroke="#D8D5D2" stroke-width="0.5" stroke-miterlimit="10"/>
<path d="M343.124 372.605C340.657 371.826 338.059 371.047 335.981 369.359C333.254 367.021 331.955 363.385 331.566 359.878C330.267 348.189 338.059 337.28 347.8 330.527C357.54 323.773 368.839 320.397 379.619 315.721C389.359 311.565 398.45 306.24 408.191 302.084C427.282 294.032 448.322 290.786 468.971 292.474C477.803 293.253 486.764 294.941 493.907 300.136C501.05 305.331 505.725 314.682 503.388 323.124C501.829 328.449 497.933 332.605 494.167 336.501C487.283 343.644 480.4 350.917 472.218 356.501C455.984 367.54 436.113 371.437 416.762 374.554C403.775 376.632 390.528 378.839 377.411 380.008C365.333 381.307 354.553 376.242 343.124 372.605Z" stroke="#D8D5D2" stroke-width="0.5" stroke-miterlimit="10"/>
<path d="M318.838 346.501C325.332 328.319 343.774 317.41 361.436 309.617C393.775 295.461 428.321 286.37 463.387 282.863C472.088 281.954 481.179 281.305 488.842 277.149C503.128 269.227 508.193 251.824 514.037 236.629C518.453 225.2 524.037 214.161 530.791 203.771C533.388 199.745 536.245 195.719 540.401 193.641C548.713 189.615 559.493 195.329 562.999 203.901C566.506 212.472 564.038 222.472 559.233 230.395C554.298 238.317 547.285 244.551 540.661 250.915C527.154 264.162 514.427 282.474 520.141 300.396C522.998 309.357 530.271 317.41 528.843 326.76C527.544 335.072 519.622 340.527 512.349 344.943C497.154 354.164 481.959 363.385 466.893 372.606C457.413 378.45 447.672 384.294 436.893 386.892C415.594 392.216 393.255 384.424 371.437 386.762C358.579 388.19 339.358 397.801 327.929 388.32C316.89 379.229 314.293 358.969 318.838 346.501Z" stroke="#D8D5D2" stroke-width="0.5" stroke-miterlimit="10"/>
<path d="M330.786 311.305C363.904 293.253 400.788 281.694 438.321 277.668C450.27 276.37 462.867 275.59 472.608 268.707C487.024 258.317 489.751 238.577 496.894 222.342C504.037 206.108 516.765 192.472 532.479 184.03C538.583 180.783 545.337 178.316 552.22 178.835C566.766 180.134 576.766 195.329 577.415 209.875C577.935 224.42 571.441 238.317 564.818 251.304C561.441 258.058 557.675 264.941 551.571 269.356C548.324 271.694 544.428 273.383 542.479 277.019C541.051 279.746 541.181 282.993 541.44 286.11C542.35 296.63 544.428 307.15 547.674 317.15C548.583 320.137 549.752 323.124 549.493 326.241C549.363 329.358 547.934 332.345 546.376 334.942C531.83 358.19 499.491 361.307 476.764 376.761C470.79 380.788 465.465 385.723 459.231 389.099C452.477 392.736 444.945 394.684 437.542 396.372C395.983 405.593 353.254 408.71 310.786 405.593C308.838 405.463 306.76 405.204 305.201 404.165C303.773 403.126 302.864 401.567 302.214 400.009C285.331 364.424 297.539 329.358 330.786 311.305Z" stroke="#D8D5D2" stroke-width="0.5" stroke-miterlimit="10"/>
<path d="M318.838 300.786C332.605 291.305 350.917 292.993 367.021 288.448C382.995 283.902 396.892 272.993 413.126 269.746C425.464 267.279 439.101 269.227 449.88 262.603C466.893 252.083 466.634 227.018 478.842 211.173C482.998 205.849 488.322 201.563 493.777 197.537C502.349 191.043 510.79 184.42 519.362 177.926C531.96 168.185 527.934 165.068 535.856 152.341C543.778 139.613 553.908 132.6 551.7 126.886C549.493 121.171 544.038 117.405 540.272 112.47C536.116 106.885 534.168 99.4827 535.726 92.5994C537.414 85.846 542.739 79.8718 549.622 78.3134C560.402 75.7159 571.311 84.4174 575.337 94.8072C579.363 105.197 578.324 116.756 577.545 127.795C576.766 138.834 576.376 150.653 581.441 160.523C585.078 167.406 591.182 173.25 592.351 181.043C593.779 190.524 587.156 199.095 585.338 208.446C583.26 218.576 586.896 229.356 584.299 239.486C582.091 248.317 575.207 256.629 577.415 265.46C578.065 268.317 579.753 270.915 579.623 273.902C579.493 277.279 577.026 280.006 574.688 282.474C569.233 288.058 556.895 288.318 557.025 298.188C557.155 308.059 577.156 326.76 581.182 343.774C583 351.436 583.519 360.397 578.195 366.242C570.142 375.203 555.726 370.398 543.778 368.579C521.7 365.333 499.881 375.333 480.92 387.151C466.504 396.242 452.348 406.632 435.724 410.269C422.607 413.126 408.97 411.308 395.463 411.308C359.099 411.048 292.084 421.568 287.019 414.295C281.954 407.022 277.928 383.904 273.383 368.709C271.045 360.917 268.707 352.735 270.266 344.813C272.863 331.566 283.383 331.695 292.734 326.241C303.253 319.617 308.968 307.669 318.838 300.786Z" stroke="#D8D5D2" stroke-width="0.5" stroke-miterlimit="10"/>
<path d="M174.03 81.9499C171.432 82.5992 169.224 79.3524 170.004 76.8848C170.783 74.4172 173.251 72.7289 175.588 71.6899C179.095 70.1314 182.991 69.3522 186.757 69.3522C190.524 72.2094 189.355 78.8329 185.459 81.6901C181.692 84.5473 176.497 84.8071 171.692 84.4174C172.341 83.5083 172.731 82.2096 172.471 81.1706" stroke="#D8D5D2" stroke-width="0.5" stroke-miterlimit="10"/>
<path d="M124.548 78.3134C122.34 77.9238 120.003 77.664 118.055 76.625C116.106 75.5861 114.288 73.638 114.418 71.4301C114.678 68.5729 117.535 66.8846 120.132 65.8456C130.782 61.8195 142.471 61.8195 153.51 58.9623C166.108 55.8454 178.056 48.9621 191.173 48.7023C197.017 48.5725 203.381 50.2608 206.888 54.8064C211.433 60.7805 209.745 69.2223 207.147 76.2354C205.459 80.5212 203.511 84.807 200.264 88.0539C191.952 96.3657 178.316 95.5865 166.757 93.2488C151.821 90.1318 138.834 81.3005 124.548 78.3134Z" stroke="#D8D5D2" stroke-width="0.5" stroke-miterlimit="10"/>
<path d="M114.678 88.0538C107.924 86.7551 100.132 85.1966 97.145 78.9627C94.6774 73.7678 97.145 67.404 101.301 63.5079C105.457 59.6117 111.041 57.6636 116.366 55.7155C127.146 51.9492 138.055 48.1828 148.834 44.4165C160.133 40.5203 171.562 36.6241 183.511 36.6241C195.459 36.6241 208.057 41.2996 214.42 51.2998C220.524 60.7805 220.005 73.7678 214.42 83.5083C208.836 93.3786 198.965 100.262 188.316 103.898C174.419 108.574 165.588 102.08 152.731 98.5736C140.003 95.067 127.665 90.5214 114.678 88.0538Z" stroke="#D8D5D2" stroke-width="0.5" stroke-miterlimit="10"/>
<path d="M111.691 97.5345C104.418 95.3267 96.8853 93.1189 90.6514 88.833C84.4175 84.5472 79.3524 77.664 79.2225 70.0015C78.9628 57.4038 91.3007 48.4426 102.73 42.9879C125.847 31.9487 151.042 25.5849 176.497 24.2862C185.718 23.7667 195.199 24.0264 203.901 26.8836C212.732 29.7408 220.914 35.5851 224.81 43.897C230.265 55.4557 226.888 69.0924 223.382 81.4303C221.174 89.3525 218.706 97.5345 213.251 103.768C189.744 130.912 138.315 105.457 111.691 97.5345Z" stroke="#D8D5D2" stroke-width="0.5" stroke-miterlimit="10"/>
<path d="M68.4431 78.8328C78.9628 96.3657 101.691 100.781 121.171 107.275C143.51 114.678 169.614 123.249 174.419 133.12C179.225 142.99 175.329 149.873 175.718 156.757C176.108 163.64 184.939 169.874 190.264 165.328C192.472 163.38 193.251 160.263 194.16 157.406C203.901 121.431 231.174 92.2097 242.213 56.6246C243.901 51.04 245.2 45.1957 244.681 39.3515C243.642 29.611 237.408 21.0394 229.356 15.4548C221.304 9.87029 211.823 6.88321 202.212 4.67537C180.134 -0.259798 156.887 -1.03904 134.938 4.5455C116.106 9.3508 97.2749 19.351 84.0278 33.7669C73.638 45.0659 59.352 63.7676 68.4431 78.8328Z" stroke="#D8D5D2" stroke-width="0.5" stroke-miterlimit="10"/>
<path d="M53.8973 76.2355C64.2872 95.5865 82.7291 110.392 103.898 116.236C113.509 118.964 123.639 119.743 133.12 123.249C142.471 126.756 151.562 133.509 153.9 143.25C155.718 150.783 153.38 159.354 157.666 165.848C160.133 169.614 164.549 171.822 168.445 174.16C179.484 180.653 189.095 190.264 193.641 202.212C195.459 207.277 196.368 212.602 197.797 217.797C201.823 232.732 209.745 246.369 215.719 260.655C222.602 276.759 223.122 284.422 225.07 301.825C225.33 303.903 225.46 305.981 224.68 307.929C223.641 310.007 221.563 311.435 219.485 312.474C196.628 324.682 166.887 321.306 145.847 306.24C142.99 304.163 140.263 301.955 138.315 298.968C136.367 296.11 135.328 292.734 134.289 289.487C129.224 274.681 125.587 270.266 116.106 257.798C110.392 250.395 104.028 243.512 99.6126 235.2C93.6384 224.031 91.4306 210.654 82.4694 201.693C78.7031 197.926 73.8978 195.199 70.3912 191.303C59.2221 178.965 61.5598 157.406 48.1829 147.406C44.6763 144.808 40.1308 143.12 37.6632 139.484C36.3645 137.536 35.7151 135.068 35.0657 132.73C29.7409 116.626 18.9615 103.119 10.7795 88.3137C2.59748 73.5081 -3.11693 55.5857 3.63647 40.0009C10.5197 23.8967 31.0397 15.325 47.2738 21.5589C60.2611 26.4941 48.9621 34.4164 47.1439 42.4685C44.8062 53.6376 48.7024 66.495 53.8973 76.2355Z" stroke="#D8D5D2" stroke-width="0.5" stroke-miterlimit="10"/>
<path d="M77.9238 158.055C80.5213 152.211 86.7552 149.094 92.7293 150.523C100.002 152.211 105.846 160.913 105.457 169.224C104.028 195.199 68.4431 179.225 77.9238 158.055Z" stroke="#D8D5D2" stroke-width="0.5" stroke-miterlimit="10"/>
<path d="M46.7542 115.977C62.4689 113.639 77.7939 121.042 92.0799 128.185C102.34 133.379 112.989 138.964 119.353 148.575C129.094 163.38 127.535 186.238 142.99 194.68C150.263 198.706 159.354 197.926 166.757 201.693C175.588 206.108 180.264 215.719 184.42 224.55C194.42 246.369 204.68 268.447 208.706 292.084C209.355 296.11 209.875 300.396 208.446 304.292C206.108 310.786 198.706 314.422 191.822 314.033C184.939 313.643 178.705 310.007 173.51 305.461C150.523 285.461 146.107 250.525 124.938 228.576C113.119 216.238 96.7553 209.095 84.5473 197.147C75.3263 188.186 68.5729 176.887 65.1962 164.549C61.4299 150.912 53.2479 149.873 45.0659 140.263C40.1307 134.289 35.5852 117.665 46.7542 115.977Z" stroke="#D8D5D2" stroke-width="0.5" stroke-miterlimit="10"/>
<path d="M33.1176 106.626C34.9358 107.535 37.1436 107.405 39.2216 107.275C46.6244 106.756 54.0271 106.236 61.4299 105.717C57.274 98.3139 52.079 91.4306 46.1049 85.5863C44.0269 83.5084 41.8191 81.5603 40.3905 79.0927C38.5722 75.9757 38.1826 72.2094 37.9229 68.4431C37.1436 57.7935 37.0138 47.1439 37.5333 36.4943C37.5333 35.1956 37.6631 33.6371 36.8839 32.5981C35.715 30.9098 33.3773 30.7799 31.4292 30.9098C26.8837 31.2994 22.468 32.728 18.4419 34.9359C16.7536 35.845 15.1951 37.0138 13.8964 38.4424C12.3379 40.2607 11.1691 42.4685 10.3898 44.6763C5.84426 57.0143 9.22096 69.3522 15.4549 80.3914C19.4809 87.5344 25.7148 103.119 33.1176 106.626Z" stroke="#D8D5D2" stroke-width="0.5" stroke-miterlimit="10"/>
<path d="M22.3382 57.0143C21.8187 62.5988 21.2992 68.1834 22.5979 73.638C23.8966 79.0927 27.5331 84.1577 32.8579 85.8461C31.4293 75.8459 29.7409 65.9755 27.7928 56.1052C27.4032 53.8973 25.9746 51.0401 23.8966 51.6895C23.507 54.5467 22.0784 57.274 20.1303 59.352" stroke="#D8D5D2" stroke-width="0.5" stroke-miterlimit="10"/>
<path d="M105.067 150.003C111.041 151.692 117.275 153.64 121.301 158.315C130.003 168.445 123.509 185.199 130.263 196.757C134.808 204.42 143.899 207.797 151.562 212.342C163.25 219.355 172.601 230.265 177.406 242.992C177.926 244.291 178.316 245.72 177.926 247.018C177.406 248.707 175.458 249.616 173.77 250.265C166.497 253.252 157.926 256.239 151.042 252.343C146.756 249.876 144.159 245.33 141.821 240.914C137.276 232.343 132.73 223.641 128.055 215.07C126.366 211.823 124.548 208.446 121.691 205.978C117.145 201.952 110.782 201.173 104.937 199.355C87.4045 194.16 73.2483 178.965 68.5729 161.302C66.6248 154.029 64.417 142.86 73.3782 140.782C81.0407 139.354 97.6645 147.925 105.067 150.003Z" stroke="#D8D5D2" stroke-width="0.5" stroke-miterlimit="10"/>
<path d="M158.705 435.984C153.77 437.022 148.445 433.256 147.536 428.321C146.497 423.386 149.614 418.061 154.289 416.113C160.004 413.775 167.666 417.542 168.186 423.646C168.705 429.23 163.77 433.776 158.835 436.373" stroke="#D8D5D2" stroke-width="0.5" stroke-miterlimit="10"/>
<path d="M185.329 418.97C183.511 425.594 179.614 431.568 175.069 436.633C172.212 439.88 168.965 442.867 165.069 444.685C161.172 446.503 156.367 446.893 152.601 444.945C150.133 443.776 148.185 441.698 146.367 439.75C142.99 436.113 139.354 432.217 138.574 427.412C137.535 421.568 140.523 415.853 143.51 410.788C145.068 408.061 146.627 405.334 149.094 403.385C151.172 401.827 153.64 400.918 155.977 400.009C160.004 398.58 164.159 397.152 168.315 395.853C183.64 390.918 188.705 405.983 185.329 418.97Z" stroke="#D8D5D2" stroke-width="0.5" stroke-miterlimit="10"/>
<path d="M146.237 448.971C135.328 442.997 129.224 429.36 131.821 417.152C132.86 412.217 135.198 407.671 138.055 403.515C142.081 397.801 147.016 392.736 152.86 388.84C166.497 379.489 185.588 374.684 191.303 359.099C193.381 353.254 193.511 346.371 198.056 342.215C203.901 336.89 213.511 339.618 220.135 344.163C226.888 348.709 232.992 355.722 232.732 363.904C232.473 370.398 228.317 375.982 224.42 381.047C212.602 396.242 201.043 410.658 191.952 427.672C182.472 445.075 167.147 459.361 146.237 448.971Z" stroke="#D8D5D2" stroke-width="0.5" stroke-miterlimit="10"/>
<path d="M190.264 454.166C177.407 466.504 155.718 462.348 140.652 452.737C136.497 450.14 132.6 447.153 129.613 443.386C121.042 432.607 121.561 416.762 127.535 404.424C133.509 392.086 144.029 382.606 154.679 373.904C165.328 365.203 176.497 356.891 184.809 345.852C186.887 342.994 188.835 340.007 191.433 337.8C195.199 334.683 200.004 333.384 204.81 332.864C216.239 331.825 228.187 335.722 235.979 344.033C243.772 352.345 246.889 365.203 242.603 375.852C241.044 379.878 238.577 383.515 237.927 387.671C237.538 390.918 238.187 394.294 237.927 397.541C236.499 411.827 221.563 412.736 212.472 419.49C201.563 428.191 200.394 444.555 190.264 454.166Z" stroke="#D8D5D2" stroke-width="0.5" stroke-miterlimit="10"/>
<path d="M190.004 477.023C180.653 478.582 171.173 475.205 162.471 471.309C154.419 467.802 146.497 463.906 138.704 459.75C132.6 456.503 126.626 452.867 122.21 447.542C111.561 434.685 114.028 414.944 122.081 400.398C130.133 385.723 142.86 374.424 153.25 361.177C156.497 357.021 159.744 351.566 157.796 346.501C156.107 342.085 151.042 340.007 146.367 338.968C139.094 337.41 131.561 337.41 124.159 338.839C120.522 339.488 116.886 340.657 113.379 339.488C110.132 338.449 107.535 335.592 106.236 332.475C101.561 321.695 111.171 307.539 122.99 307.929C137.795 308.448 145.717 326.111 159.354 331.825C170.134 336.371 182.342 332.734 193.77 330.137C212.342 325.851 231.434 324.423 250.395 325.721C253.642 325.981 257.148 326.371 259.097 328.838C260.785 330.786 261.045 333.514 261.045 336.111C261.564 352.735 258.447 369.878 262.733 385.982C264.941 394.424 269.227 402.346 270.915 410.918C271.305 412.866 271.564 414.944 270.525 416.632C269.486 418.321 267.538 418.97 265.72 419.62C254.032 423.516 242.083 426.633 230.005 428.581C223.641 429.62 216.628 430.789 212.212 435.464C200.524 448.321 214.68 472.738 190.004 477.023Z" stroke="#D8D5D2" stroke-width="0.5" stroke-miterlimit="10"/>
</svg>
