<svg width="483" height="479" viewBox="0 0 483 479" fill="none" xmlns="http://www.w3.org/2000/svg">
<path d="M262.476 161.562C259.618 164.289 254.683 164.289 251.826 161.562C248.969 158.835 248.839 153.77 251.436 150.912C252.475 149.744 254.034 148.834 255.592 148.445C260.008 147.146 265.333 149.484 267.411 153.64C267.93 154.679 268.19 155.848 267.8 156.887C266.761 159.224 262.346 159.354 262.606 161.822" stroke="#F9B233" stroke-width="0.5" stroke-miterlimit="10"/>
<path d="M230.267 153.64C231.696 149.873 233.774 146.107 236.501 143.25C242.086 137.406 250.527 134.938 258.579 133.899C266.372 132.86 274.684 132.73 281.697 136.107C283.255 136.886 284.814 137.795 285.853 139.094C287.541 141.302 287.801 144.159 287.931 146.886C288.32 153.64 288.58 161.172 284.424 166.627C281.957 169.874 278.45 171.952 274.944 173.9C265.593 179.225 248.579 190.004 237.41 184.16C227.02 178.316 226.631 163.12 230.267 153.64Z" stroke="#F9B233" stroke-width="0.5" stroke-miterlimit="10"/>
<path d="M198.318 180.523C199.098 170.134 208.189 162.731 214.033 154.159C217.28 149.354 219.618 143.899 223.254 139.484C229.748 131.431 239.618 127.146 249.488 124.159C255.852 122.34 262.476 120.912 269.099 121.561C278.58 122.47 287.671 127.665 293.256 135.458C298.84 143.25 300.918 153.38 298.97 162.731C296.372 174.939 287.281 184.939 276.502 191.173C265.722 197.407 253.255 200.134 241.047 201.952C226.631 204.03 196.63 202.082 198.318 180.523Z" stroke="#F9B233" stroke-width="0.5" stroke-miterlimit="10"/>
<path d="M179.876 254.551C176.76 250.785 176.37 245.59 177.019 240.784C177.669 235.979 179.227 231.304 179.487 226.498C179.876 217.927 176.24 209.745 173.902 201.563C171.565 193.381 170.655 183.64 175.85 176.887C178.188 173.77 181.435 171.692 184.292 168.965C190.656 162.601 193.643 153.77 197.929 145.847C211.825 120.522 242.475 106.236 271.047 109.873C283.775 111.431 297.022 117.016 303.645 128.055C311.048 140.393 308.451 156.367 303.775 170.004C299.619 182.342 293.645 194.68 283.255 202.472C273.125 210.134 260.138 212.732 247.67 214.55C235.072 216.498 222.215 218.057 211.176 224.291C203.383 228.706 196.5 236.109 194.162 244.94C192.344 250.655 189.877 266.369 179.876 254.551Z" stroke="#F9B233" stroke-width="0.5" stroke-miterlimit="10"/>
<path d="M169.227 264.032C165.331 256.109 165.201 247.018 164.551 238.317C163.383 223.511 160.525 208.706 155.98 194.55C153.642 187.277 150.785 179.484 152.733 171.952C154.162 166.627 157.798 162.341 161.435 158.185C168.448 150.263 175.461 142.341 182.734 134.548C189.227 127.535 195.981 120.522 203.903 115.197C217.41 106.236 233.774 102.859 249.748 99.6126C261.696 97.145 274.424 94.8073 285.723 99.4827C298.191 104.548 305.853 116.886 312.737 128.574C315.724 133.509 318.711 138.704 319.49 144.419C320.789 152.601 317.542 160.653 314.295 168.185C309.62 179.484 304.944 190.783 300.269 202.082C298.97 205.069 297.671 208.186 295.593 210.654C293.256 213.251 290.009 214.81 286.892 216.368C274.684 222.343 262.086 227.408 249.099 231.563C237.41 235.33 224.813 238.706 215.981 247.278C204.422 258.447 184.682 295.461 169.227 264.032Z" stroke="#F9B233" stroke-width="0.5" stroke-miterlimit="10"/>
<path d="M158.837 258.447C156.499 246.499 157.928 234.031 154.941 222.213C152.863 213.771 148.577 205.849 142.473 199.485C136.629 193.251 128.317 186.627 129.875 178.186C130.784 172.731 135.59 168.965 139.096 164.809C144.811 157.926 147.538 148.575 146.499 139.743C145.33 129.873 140.395 118.184 147.408 111.171C151.304 107.275 157.408 106.756 162.863 106.236C201.955 102.47 238.579 83.1187 277.801 82.5992C290.009 82.4693 304.035 85.1967 309.879 95.8463C313.646 102.73 312.996 111.301 316.243 118.444C318.97 124.548 324.425 129.094 328.841 134.159C333.256 139.224 337.023 145.847 335.464 152.471C333.776 160.004 326.113 164.159 320.919 170.004C311.957 180.134 311.178 194.68 309.749 208.057C309.36 211.693 308.84 215.459 306.762 218.446C305.204 220.654 302.736 222.213 300.399 223.641C271.047 240.525 232.865 242.733 209.617 267.408C205.332 271.954 201.695 277.279 196.63 281.045C179.487 294.162 161.954 275.071 158.837 258.447Z" stroke="#F9B233" stroke-width="0.5" stroke-miterlimit="10"/>
<path d="M226.631 271.954C253.774 258.058 289.359 260.006 310.399 237.927C318.711 229.226 323.516 217.407 323.776 205.329C323.906 196.368 321.828 186.627 325.984 178.705C330.14 170.913 339.49 167.147 348.452 166.627C357.283 166.108 366.114 168.185 374.946 168.705C382.348 169.224 391.05 168.056 394.946 161.692C399.881 153.51 392.998 142.99 385.076 137.665C377.154 132.341 367.283 128.704 362.348 120.522C358.192 113.639 357.413 103.639 350.14 100.262C346.374 98.5736 341.958 99.3528 337.932 99.223C327.542 98.7035 317.802 91.041 314.944 81.0407C313.126 74.5471 314.035 67.4041 312.737 60.7806C311.438 54.157 306.633 47.014 299.879 47.1439C294.944 47.1439 290.788 50.9102 286.892 54.0272C275.593 62.9884 261.567 68.3132 247.281 69.0924C237.54 69.6119 227.67 68.1833 218.189 70.0015C205.332 72.599 194.292 81.1706 181.435 84.2876C166.11 88.0539 147.538 84.8071 136.889 96.3657C125.719 108.444 130.525 129.613 119.486 141.691C115.459 146.107 109.615 148.834 106.498 153.899C103.251 159.354 103.771 166.367 106.238 172.082C108.576 177.926 112.602 182.991 116.239 188.186C127.668 204.94 134.811 224.68 136.759 244.94C138.187 259.486 137.018 274.422 140.915 288.578C141.954 292.344 143.512 296.24 146.629 298.708C149.226 300.656 152.473 301.435 155.72 301.825C182.344 304.942 204.422 283.253 226.631 271.954Z" stroke="#F9B233" stroke-width="0.5" stroke-miterlimit="10"/>
<path d="M222.345 288.188C238.839 279.097 256.631 272.344 275.073 268.188C295.723 263.512 319.75 260.525 331.438 242.862C342.477 226.109 338.581 200.654 354.296 188.056C365.595 179.095 382.348 180.913 394.557 173.251C399.492 170.134 403.388 165.718 406.375 160.653C415.466 145.588 416.375 125.847 408.583 110.132C405.726 104.418 401.829 99.2229 399.751 93.1189C397.673 87.1448 397.803 79.6121 402.349 75.0666C407.674 69.7418 417.284 69.8717 421.44 63.6378C424.817 58.5727 422.609 51.2998 417.934 47.5335C413.258 43.7672 406.894 42.7282 400.79 42.988C384.686 43.7672 369.491 52.3388 353.387 51.5596C332.737 50.3907 314.295 33.8969 293.905 36.6242C277.801 38.7022 265.333 52.2089 249.488 55.8454C235.462 59.0922 220.657 54.4168 206.5 56.7545C189.227 59.6117 174.682 72.4691 157.279 74.9367C147.538 76.3653 135.979 74.8068 129.226 81.82C126.369 84.8071 124.81 88.963 123.512 92.8592C118.576 107.795 114.55 123.379 105.07 135.587C101.693 140.003 97.537 143.769 94.2902 148.315C85.5887 160.263 83.6406 176.627 89.2251 190.394C91.5628 196.108 95.0694 201.303 98.1864 206.628C109.226 225.2 116.498 246.239 119.096 267.668C120.135 276.629 120.654 286.24 126.109 293.383C130.265 298.838 136.759 302.214 141.434 307.15C147.538 313.643 151.694 323.903 160.655 324.682C166.889 325.332 170.785 320.916 174.682 316.89C179.747 311.565 180.266 310.786 187.149 307.539C199.357 301.825 210.527 294.682 222.345 288.188Z" stroke="#F9B233" stroke-width="0.5" stroke-miterlimit="10"/>
<path d="M262.476 363.385C258.45 361.826 254.294 359.229 253.125 355.073C252.216 351.956 253.255 348.579 254.683 345.722C259.229 336.89 268.32 331.306 277.151 326.76C293.385 318.578 310.788 312.604 328.581 309.098C334.685 307.929 340.919 307.02 347.153 308.059C353.257 309.228 359.231 312.604 362.088 318.189C365.984 325.981 362.608 335.852 356.244 341.826C349.88 347.8 341.438 350.787 333.127 353.384C310.918 360.527 284.944 371.826 262.476 363.385Z" stroke="#F9B233" stroke-width="0.5" stroke-miterlimit="10"/>
<path d="M233.124 372.606C230.657 371.826 228.059 371.047 225.981 369.359C223.254 367.021 221.955 363.385 221.566 359.878C220.267 348.189 228.059 337.28 237.8 330.527C247.54 323.773 258.839 320.397 269.619 315.721C279.359 311.565 288.45 306.24 298.191 302.085C317.282 294.032 338.322 290.786 358.971 292.474C367.803 293.253 376.764 294.942 383.907 300.136C391.05 305.331 395.725 314.682 393.388 323.124C391.829 328.449 387.933 332.605 384.167 336.501C377.283 343.644 370.4 350.917 362.218 356.501C345.984 367.54 326.113 371.437 306.762 374.554C293.775 376.632 280.528 378.839 267.411 380.008C255.333 381.307 244.553 376.242 233.124 372.606Z" stroke="#F9B233" stroke-width="0.5" stroke-miterlimit="10"/>
<path d="M208.838 346.501C215.332 328.319 233.774 317.41 251.436 309.617C283.775 295.461 318.321 286.37 353.387 282.863C362.088 281.954 371.179 281.305 378.842 277.149C393.128 269.227 398.193 251.824 404.037 236.629C408.453 225.2 414.037 214.161 420.791 203.771C423.388 199.745 426.245 195.719 430.401 193.641C438.713 189.615 449.493 195.329 452.999 203.901C456.506 212.472 454.038 222.472 449.233 230.395C444.298 238.317 437.285 244.551 430.661 250.915C417.154 264.162 404.427 282.474 410.141 300.396C412.998 309.357 420.271 317.41 418.843 326.76C417.544 335.072 409.622 340.527 402.349 344.943C387.154 354.164 371.959 363.385 356.893 372.606C347.413 378.45 337.672 384.294 326.893 386.892C305.594 392.216 283.255 384.424 261.437 386.762C248.579 388.19 229.358 397.801 217.929 388.32C206.89 379.229 204.293 358.969 208.838 346.501Z" stroke="#F9B233" stroke-width="0.5" stroke-miterlimit="10"/>
<path d="M220.786 311.306C253.904 293.253 290.788 281.694 328.321 277.668C340.27 276.37 352.867 275.59 362.608 268.707C377.024 258.317 379.751 238.577 386.894 222.343C394.037 206.108 406.765 192.472 422.479 184.03C428.583 180.783 435.337 178.316 442.22 178.835C456.766 180.134 466.766 195.329 467.415 209.875C467.935 224.421 461.441 238.317 454.818 251.304C451.441 258.058 447.675 264.941 441.571 269.357C438.324 271.694 434.428 273.383 432.479 277.019C431.051 279.746 431.181 282.993 431.44 286.11C432.35 296.63 434.428 307.15 437.674 317.15C438.583 320.137 439.752 323.124 439.493 326.241C439.363 329.358 437.934 332.345 436.376 334.942C421.83 358.19 389.491 361.307 366.764 376.762C360.79 380.788 355.465 385.723 349.231 389.099C342.477 392.736 334.945 394.684 327.542 396.372C285.983 405.593 243.254 408.71 200.786 405.593C198.838 405.463 196.76 405.204 195.201 404.165C193.773 403.126 192.864 401.567 192.214 400.009C175.331 364.424 187.539 329.358 220.786 311.306Z" stroke="#F9B233" stroke-width="0.5" stroke-miterlimit="10"/>
<path d="M208.838 300.786C222.605 291.305 240.917 292.993 257.021 288.448C272.995 283.902 286.892 272.993 303.126 269.746C315.464 267.279 329.101 269.227 339.88 262.603C356.893 252.083 356.634 227.018 368.842 211.173C372.998 205.849 378.322 201.563 383.777 197.537C392.349 191.043 400.79 184.42 409.362 177.926C421.96 168.186 417.934 165.069 425.856 152.341C433.778 139.613 443.908 132.6 441.7 126.886C439.493 121.171 434.038 117.405 430.272 112.47C426.116 106.885 424.168 99.4827 425.726 92.5994C427.414 85.8461 432.739 79.8719 439.622 78.3134C450.402 75.716 461.311 84.4174 465.337 94.8073C469.363 105.197 468.324 116.756 467.545 127.795C466.766 138.834 466.376 150.653 471.441 160.523C475.078 167.406 481.182 173.251 482.351 181.043C483.779 190.524 477.156 199.095 475.338 208.446C473.26 218.576 476.896 229.356 474.299 239.486C472.091 248.317 465.207 256.629 467.415 265.46C468.065 268.318 469.753 270.915 469.623 273.902C469.493 277.279 467.026 280.006 464.688 282.474C459.233 288.058 446.895 288.318 447.025 298.188C447.155 308.059 467.156 326.76 471.182 343.774C473 351.436 473.519 360.397 468.195 366.242C460.142 375.203 445.726 370.398 433.778 368.579C411.7 365.333 389.881 375.333 370.92 387.151C356.504 396.242 342.348 406.632 325.724 410.269C312.607 413.126 298.97 411.308 285.463 411.308C249.099 411.048 182.084 421.568 177.019 414.295C171.954 407.022 167.928 383.904 163.383 368.709C161.045 360.917 158.707 352.735 160.266 344.813C162.863 331.566 173.383 331.696 182.734 326.241C193.253 319.617 198.968 307.669 208.838 300.786Z" stroke="#F9B233" stroke-width="0.5" stroke-miterlimit="10"/>
<path d="M64.0298 81.9499C61.4323 82.5992 59.2245 79.3524 60.0037 76.8848C60.7829 74.4172 63.2505 72.7289 65.5882 71.6899C69.0948 70.1314 72.991 69.3522 76.7573 69.3522C80.5237 72.2094 79.3548 78.8329 75.4586 81.6901C71.6923 84.5473 66.4974 84.8071 61.6921 84.4174C62.3414 83.5083 62.731 82.2096 62.4713 81.1706" stroke="#F9B233" stroke-width="0.5" stroke-miterlimit="10"/>
<path d="M14.5482 78.3134C12.3403 77.9238 10.0026 77.6641 8.05454 76.6251C6.10644 75.5861 4.28822 73.638 4.41809 71.4301C4.67784 68.5729 7.53505 66.8846 10.1325 65.8456C20.7821 61.8195 32.4707 61.8195 43.5099 58.9623C56.1075 55.8454 68.0559 48.9621 81.173 48.7024C87.0173 48.5725 93.3811 50.2609 96.8877 54.8064C101.433 60.7806 99.7449 69.2223 97.1474 76.2354C95.4591 80.5213 93.511 84.8071 90.2641 88.0539C81.9523 96.3658 68.3156 95.5865 56.7569 93.2488C41.8215 90.1319 28.8342 81.3005 14.5482 78.3134Z" stroke="#F9B233" stroke-width="0.5" stroke-miterlimit="10"/>
<path d="M4.67784 88.0539C-2.07556 86.7551 -9.86794 85.1967 -12.855 78.9628C-15.3226 73.7678 -12.855 67.4041 -8.69908 63.5079C-4.54315 59.6117 1.04139 57.6636 6.36618 55.7155C17.1456 51.9492 28.055 48.1829 38.8344 44.4166C50.1334 40.5204 61.5622 36.6242 73.5105 36.6242C85.4588 36.6242 98.0565 41.2996 104.42 51.2998C110.524 60.7805 110.005 73.7678 104.42 83.5083C98.8358 93.3787 88.9654 100.262 78.3158 103.898C64.4194 108.574 55.588 102.08 42.7306 98.5736C30.0031 95.067 17.6651 90.5215 4.67784 88.0539Z" stroke="#F9B233" stroke-width="0.5" stroke-miterlimit="10"/>
<path d="M1.69076 97.5346C-5.58212 95.3267 -13.1148 93.1189 -19.3487 88.8331C-25.5826 84.5473 -30.6476 77.664 -30.7775 70.0015C-31.0372 57.4039 -18.6993 48.4426 -7.27048 42.9879C15.8469 31.9487 41.0423 25.585 66.4974 24.2862C75.7184 23.7668 85.1991 24.0265 93.9006 26.8837C102.732 29.7409 110.914 35.5852 114.81 43.8971C120.265 55.4558 116.888 69.0924 113.382 81.4303C111.174 89.3526 108.706 97.5346 103.251 103.768C79.7444 130.912 28.3147 105.457 1.69076 97.5346Z" stroke="#F9B233" stroke-width="0.5" stroke-miterlimit="10"/>
<path d="M-41.5569 78.8329C-31.0372 96.3657 -8.30946 100.781 11.1715 107.275C33.5096 114.678 59.6141 123.249 64.4194 133.12C69.2247 142.99 65.3285 149.873 65.7181 156.757C66.1078 163.64 74.9391 169.874 80.2639 165.328C82.4717 163.38 83.251 160.263 84.1601 157.406C93.9006 121.431 121.174 92.2098 132.213 56.6246C133.901 51.0401 135.2 45.1958 134.681 39.3515C133.642 29.611 127.408 21.0394 119.356 15.4549C111.304 9.87035 101.823 6.88328 92.2122 4.67544C70.1338 -0.259737 46.8865 -1.03898 24.938 4.54556C6.10644 9.35086 -12.7251 19.3511 -25.9722 33.767C-36.362 45.0659 -50.648 63.7676 -41.5569 78.8329Z" stroke="#F9B233" stroke-width="0.5" stroke-miterlimit="10"/>
<path d="M-56.1027 76.2354C-45.7129 95.5865 -27.2709 110.392 -6.10162 116.236C3.50898 118.964 13.6391 119.743 23.1198 123.249C32.4707 126.756 41.5618 133.509 43.8995 143.25C45.7177 150.783 43.38 159.354 47.6658 165.848C50.1334 169.614 54.5491 171.822 58.4452 174.16C69.4844 180.653 79.0951 190.264 83.6406 202.212C85.4588 207.277 86.3679 212.602 87.7965 217.797C91.8226 232.732 99.7449 246.369 105.719 260.655C112.602 276.759 113.122 284.422 115.07 301.825C115.33 303.903 115.459 305.981 114.68 307.929C113.641 310.007 111.563 311.435 109.485 312.474C86.6277 324.682 56.8868 321.306 35.8474 306.24C32.9901 304.162 30.2628 301.955 28.3147 298.968C26.3666 296.11 25.3276 292.734 24.2887 289.487C19.2236 274.681 15.5872 270.266 6.10644 257.798C0.392029 250.395 -5.97175 243.512 -10.3874 235.2C-16.3616 224.031 -18.5694 210.654 -27.5307 201.693C-31.297 197.926 -36.1023 195.199 -39.6088 191.303C-50.7779 178.965 -48.4402 157.406 -61.8171 147.406C-65.3237 144.808 -69.8693 143.12 -72.3368 139.484C-73.6356 137.535 -74.2849 135.068 -74.9343 132.73C-80.2591 116.626 -91.0386 103.119 -99.2205 88.3136C-107.403 73.5081 -113.117 55.5856 -106.364 40.0009C-99.4803 23.8966 -78.9604 15.325 -62.7262 21.5589C-49.7389 26.4941 -61.0379 34.4163 -62.8561 42.4685C-65.1938 53.6375 -61.2976 66.495 -56.1027 76.2354Z" stroke="#F9B233" stroke-width="0.5" stroke-miterlimit="10"/>
<path d="M-63.2457 115.977C-47.5311 113.639 -32.2061 121.042 -17.9201 128.185C-7.66009 133.38 2.98949 138.964 9.35327 148.575C19.0937 163.38 17.5353 186.238 32.9901 194.68C40.263 198.706 49.3541 197.926 56.7569 201.693C65.5883 206.108 70.2637 215.719 74.4196 224.55C84.4198 246.369 94.6798 268.447 98.7059 292.084C99.3552 296.11 99.8747 300.396 98.4461 304.292C96.1084 310.786 88.7057 314.422 81.8224 314.033C74.9391 313.643 68.7052 310.007 63.5103 305.461C40.5228 285.461 36.1071 250.525 14.9378 228.576C3.11936 216.239 -13.2446 209.095 -25.4527 197.147C-34.6737 188.186 -41.4271 176.887 -44.8038 164.549C-48.5701 150.912 -56.7521 149.873 -64.9341 140.263C-69.8693 134.289 -74.4148 117.665 -63.2457 115.977Z" stroke="#F9B233" stroke-width="0.5" stroke-miterlimit="10"/>
<path d="M-4.93277 150.003C1.04139 151.692 7.27529 153.64 11.3014 158.315C20.0028 168.445 13.5092 185.199 20.2626 196.758C24.8081 204.42 33.8992 207.797 41.5617 212.342C53.2503 219.355 62.6012 230.265 67.4065 242.992C67.926 244.291 68.3156 245.72 67.926 247.018C67.4065 248.707 65.4584 249.616 63.77 250.265C56.4971 253.252 47.9255 256.239 41.0423 252.343C36.7565 249.876 34.159 245.33 31.8213 240.914C27.2757 232.343 22.7302 223.641 18.0547 215.07C16.3664 211.823 14.5482 208.446 11.691 205.979C7.14541 201.952 0.781643 201.173 -5.06264 199.355C-22.5955 194.16 -36.7516 178.965 -41.4271 161.302C-43.3752 154.029 -45.583 142.86 -36.6218 140.782C-28.9593 139.354 -12.3355 147.925 -4.93277 150.003Z" stroke="#F9B233" stroke-width="0.5" stroke-miterlimit="10"/>
<path d="M48.7048 435.984C43.7696 437.023 38.4448 433.256 37.5357 428.321C36.4967 423.386 39.6137 418.061 44.2891 416.113C50.0035 413.775 57.666 417.542 58.1855 423.646C58.705 429.23 53.7698 433.776 48.8346 436.373" stroke="#F9B233" stroke-width="0.5" stroke-miterlimit="10"/>
<path d="M75.3287 418.97C73.5105 425.594 69.6143 431.568 65.0688 436.633C62.2116 439.88 58.9647 442.867 55.0685 444.685C51.1724 446.503 46.3671 446.893 42.6007 444.945C40.1332 443.776 38.1851 441.698 36.3668 439.75C32.9901 436.113 29.3537 432.217 28.5745 427.412C27.5355 421.568 30.5226 415.853 33.5096 410.788C35.0681 408.061 36.6266 405.334 39.0942 403.385C41.1721 401.827 43.6397 400.918 45.9774 400.009C50.0035 398.58 54.1594 397.152 58.3154 395.853C73.6404 390.918 78.7054 405.983 75.3287 418.97Z" stroke="#F9B233" stroke-width="0.5" stroke-miterlimit="10"/>
<path d="M36.237 448.971C25.3276 442.997 19.2236 429.36 21.8211 417.152C22.86 412.217 25.1978 407.671 28.055 403.515C32.081 397.801 37.0162 392.736 42.8605 388.84C56.4971 379.489 75.5885 374.684 81.3029 359.099C83.3809 353.254 83.5107 346.371 88.0563 342.215C93.9006 336.89 103.511 339.618 110.135 344.163C116.888 348.709 122.992 355.722 122.732 363.904C122.473 370.398 118.317 375.982 114.42 381.047C102.602 396.242 91.0434 410.658 81.9522 427.672C72.4715 445.075 57.1465 459.361 36.237 448.971Z" stroke="#F9B233" stroke-width="0.5" stroke-miterlimit="10"/>
<path d="M80.2639 454.166C67.4065 466.504 45.7177 462.348 30.6524 452.737C26.4965 450.14 22.6003 447.153 19.6132 443.386C11.0416 432.607 11.5611 416.762 17.5353 404.424C23.5094 392.086 34.0291 382.606 44.6787 373.904C55.3283 365.203 66.4974 356.891 74.8092 345.852C76.8872 342.994 78.8353 340.007 81.4328 337.8C85.1991 334.683 90.0044 333.384 94.8097 332.864C106.238 331.825 118.187 335.722 125.979 344.033C133.772 352.345 136.889 365.203 132.603 375.852C131.044 379.878 128.577 383.515 127.927 387.671C127.538 390.918 128.187 394.294 127.927 397.541C126.499 411.827 111.563 412.736 102.472 419.49C91.5629 428.191 90.394 444.555 80.2639 454.166Z" stroke="#F9B233" stroke-width="0.5" stroke-miterlimit="10"/>
<path d="M80.0041 477.023C70.6533 478.582 61.1726 475.205 52.4711 471.309C44.419 467.802 36.4967 463.906 28.7043 459.75C22.6003 456.503 16.6261 452.867 12.2105 447.542C1.56088 434.685 4.02847 414.944 12.0806 400.398C20.1327 385.723 32.8603 374.424 43.2501 361.177C46.4969 357.021 49.7437 351.566 47.7957 346.501C46.1073 342.085 41.0423 340.007 36.3668 338.968C29.0939 337.41 21.5613 337.41 14.1586 338.839C10.5221 339.488 6.88568 340.657 3.37911 339.488C0.132284 338.449 -2.46517 335.592 -3.7639 332.475C-8.43933 321.695 1.17126 307.539 12.9897 307.929C27.7952 308.448 35.7175 326.111 49.3541 331.825C60.1336 336.371 72.3416 332.735 83.7705 330.137C102.342 325.851 121.434 324.423 140.395 325.721C143.642 325.981 147.148 326.371 149.097 328.838C150.785 330.786 151.045 333.514 151.045 336.111C151.564 352.735 148.447 369.878 152.733 385.982C154.941 394.424 159.227 402.346 160.915 410.918C161.305 412.866 161.564 414.944 160.525 416.632C159.486 418.321 157.538 418.97 155.72 419.62C144.032 423.516 132.083 426.633 120.005 428.581C113.641 429.62 106.628 430.789 102.212 435.464C90.5238 448.321 104.68 472.738 80.0041 477.023Z" stroke="#F9B233" stroke-width="0.5" stroke-miterlimit="10"/>
</svg>
