<svg width="29" height="30" viewBox="0 0 29 30" fill="none" xmlns="http://www.w3.org/2000/svg">
<g clip-path="url(#clip0)">
<path d="M23.3751 0H5.62478C4.9574 0 4.41645 0.559608 4.41645 1.25V25.4124C4.41645 26.1028 4.9574 26.6624 5.62478 26.6624H7.50373V29.3749C7.50373 29.7201 7.77417 29.9999 8.10782 30C8.28446 30 8.45227 29.9201 8.56706 29.7812L9.89622 28.1812L11.2254 29.7812C11.4423 30.0435 11.8237 30.0743 12.0772 29.85C12.2114 29.7313 12.2887 29.5577 12.2887 29.3749V26.6624H23.3751C24.0425 26.6624 24.5835 26.1028 24.5835 25.4124V1.25C24.5835 0.559608 24.0425 0 23.3751 0ZM10.3554 26.7937C10.1385 26.5313 9.75711 26.5006 9.50359 26.7249C9.47973 26.7459 9.45752 26.769 9.43706 26.7937L8.71206 27.6687V25.2937C9.47535 25.5911 10.3171 25.5911 11.0804 25.2937V27.6687L10.3554 26.7937ZM12.0893 21.9687C12.0894 23.2258 11.1114 24.2488 9.89622 24.2624H9.87206C8.64749 24.2624 7.65477 23.2355 7.65477 21.9687C7.65477 20.7019 8.64749 19.6749 9.87206 19.6749C11.0966 19.6749 12.0893 20.7019 12.0893 21.9687ZM23.3449 25.4062H12.2887V24.4999C13.6427 23.1331 13.6692 20.8894 12.3479 19.4887C11.0266 18.088 8.85774 18.0606 7.50373 19.4275C6.14972 20.7943 6.12321 23.038 7.44452 24.4387C7.46401 24.4594 7.48372 24.4798 7.50373 24.4999V25.4062H5.62478V1.25H23.3751L23.3449 25.4062Z" fill="#F9B233"/>
<path d="M19.7501 4.94373H9.24976C8.91611 4.94373 8.6456 5.22357 8.6456 5.56872C8.6456 5.91388 8.91611 6.19372 9.24976 6.19372H19.7501C20.0838 6.19372 20.3543 5.91388 20.3543 5.56872C20.3543 5.22357 20.0839 4.94373 19.7501 4.94373Z" fill="#F9B233"/>
<path d="M19.7501 8.53748H9.24976C8.91611 8.53748 8.6456 8.81732 8.6456 9.16248C8.6456 9.50763 8.91611 9.78747 9.24976 9.78747H19.7501C20.0838 9.78747 20.3543 9.50763 20.3543 9.16248C20.3543 8.81732 20.0839 8.53748 19.7501 8.53748Z" fill="#F9B233"/>
<path d="M19.7501 12.1312H9.24976C8.91611 12.1312 8.6456 12.411 8.6456 12.7562C8.6456 13.1013 8.91611 13.3812 9.24976 13.3812H19.7501C20.0838 13.3812 20.3543 13.1013 20.3543 12.7562C20.3543 12.411 20.0839 12.1312 19.7501 12.1312Z" fill="#F9B233"/>
<path d="M19.7501 15.7249H9.24976C8.91611 15.7249 8.6456 16.0048 8.6456 16.3499C8.6456 16.6951 8.91611 16.9749 9.24976 16.9749H19.7501C20.0838 16.9749 20.3543 16.6951 20.3543 16.3499C20.3543 16.0048 20.0839 15.7249 19.7501 15.7249Z" fill="#F9B233"/>
<path d="M19.7501 19.3187H14.9531C14.6194 19.3187 14.3489 19.5985 14.3489 19.9437C14.3489 20.2888 14.6194 20.5687 14.9531 20.5687H19.7501C20.0838 20.5687 20.3543 20.2888 20.3543 19.9437C20.3543 19.5985 20.0839 19.3187 19.7501 19.3187Z" fill="#F9B233"/>
</g>
<defs>
<clipPath id="clip0">
<rect width="29" height="30" fill="white"/>
</clipPath>
</defs>
</svg>
