<svg width="18" height="18" viewBox="0 0 18 18" fill="none" xmlns="http://www.w3.org/2000/svg">
<g clip-path="url(#clip0)">
<path d="M5.37017 8.12982C5.24449 8.00414 5.04135 8.00414 4.91567 8.12982C4.85299 8.1925 4.82149 8.27479 4.82149 8.35707C4.82149 8.43936 4.85299 8.52164 4.91567 8.58432L8.77249 12.4411C8.80206 12.471 8.83774 12.4945 8.87727 12.5109C8.9557 12.5434 9.0441 12.5434 9.12285 12.5109C9.16238 12.4945 9.19806 12.4707 9.22795 12.4411L13.0845 8.58432C13.2101 8.45865 13.2101 8.2555 13.0845 8.12982C12.9588 8.00414 12.7556 8.00414 12.63 8.12982L9.32149 11.4383L9.32149 1.60707C9.32149 1.42932 9.17781 1.28564 9.00006 1.28564C8.82231 1.28564 8.67863 1.42932 8.67863 1.60707L8.67863 11.4383L5.37017 8.12982Z" fill="#1A1D3A" stroke="#1A1D3A" stroke-width="0.5"/>
<path d="M18 16.3928L18 4.4999C18 4.32215 17.8563 4.17847 17.6786 4.17847L10.9286 4.17847C10.7508 4.17847 10.6071 4.32215 10.6071 4.4999C10.6071 4.67764 10.7508 4.82132 10.9286 4.82132L17.3571 4.82132L17.3571 16.0713L0.642857 16.0713L0.642857 4.82132L7.07143 4.82132C7.24918 4.82132 7.39286 4.67764 7.39286 4.49989C7.39286 4.32214 7.24918 4.17847 7.07143 4.17847L0.321429 4.17847C0.143679 4.17847 2.32138e-07 4.32214 2.24368e-07 4.49989L-2.95485e-07 16.3928C-3.03254e-07 16.5705 0.143678 16.7142 0.321428 16.7142L17.6786 16.7142C17.8563 16.7142 18 16.5705 18 16.3928Z" fill="#1A1D3A" stroke="#1A1D3A" stroke-width="0.5"/>
</g>
<defs>
<clipPath id="clip0">
<rect width="18" height="18" fill="white" transform="translate(18) rotate(90)"/>
</clipPath>
</defs>
</svg>
