<svg width="33" height="33" viewBox="0 0 33 33" fill="none" xmlns="http://www.w3.org/2000/svg">
<path d="M27.1092 0H5.89095C5.56698 0 5.30436 0.262624 5.30436 0.586592V32.4134C5.30436 32.7375 5.56685 33 5.89082 33H27.109C27.433 33 27.6955 32.7374 27.6955 32.4134V0.586592C27.6956 0.262624 27.433 0 27.1092 0ZM6.47741 1.4279L15.9135 4.90582V28.094L6.47741 31.572V1.4279ZM26.5226 31.8269H9.17823L16.7029 29.0535C16.9335 28.9686 17.0865 28.7487 17.0865 28.5032V4.4969C17.0865 4.25127 16.9334 4.03157 16.7029 3.9465L9.17836 1.17305H26.5226V31.8269Z" fill="#F9B233"/>
<path d="M14.0091 14.4664C13.173 14.4664 12.5179 15.3597 12.5179 16.5002C12.5179 17.6406 13.173 18.534 14.0091 18.534C14.8453 18.534 15.5003 17.6407 15.5003 16.5002C15.5003 15.3597 14.8453 14.4664 14.0091 14.4664ZM14.009 17.3606C13.9326 17.3416 13.691 17.0444 13.691 16.5002C13.691 15.956 13.9326 15.6589 14.009 15.6397C14.0855 15.659 14.3272 15.9566 14.3272 16.5002C14.3272 17.0436 14.0855 17.3412 14.009 17.3606Z" fill="#F9B233"/>
</svg>
