<svg width="26" height="25" viewBox="0 0 26 25" fill="none" xmlns="http://www.w3.org/2000/svg">
<mask id="path-1-inside-1" fill="white">
<path d="M26 12.621C26 5.83865 20.168 0.320312 13 0.320312C5.83204 0.320312 0 5.83865 0 12.621C0 16.2035 1.62807 19.4325 4.21956 21.6824L4.20727 21.6927L4.62895 22.0291C4.65636 22.051 4.68615 22.0689 4.71356 22.0904C4.93764 22.2662 5.16975 22.433 5.40611 22.5945C5.48269 22.6468 5.55927 22.6991 5.63727 22.7501C5.88971 22.9147 6.14876 23.0709 6.41349 23.2189C6.47116 23.2511 6.52931 23.2824 6.58745 23.3137C6.87724 23.4698 7.17316 23.617 7.47618 23.7521C7.4984 23.7619 7.52109 23.7709 7.54331 23.7807C8.53084 24.215 9.58502 24.534 10.6874 24.7223C10.7163 24.7272 10.7451 24.7321 10.7744 24.737C11.1167 24.793 11.4627 24.8377 11.813 24.8677C11.8555 24.8712 11.8981 24.8735 11.9411 24.8771C12.29 24.9043 12.6426 24.9218 13 24.9218C13.3541 24.9218 13.7034 24.9043 14.0504 24.8779C14.0944 24.8744 14.1383 24.8721 14.1823 24.8686C14.5297 24.8386 14.8729 24.7952 15.2119 24.7402C15.2412 24.7353 15.271 24.7303 15.3003 24.725C16.3861 24.5407 17.4252 24.2289 18.4 23.8058C18.4359 23.7901 18.4723 23.7754 18.5082 23.7592C18.7999 23.6295 19.0849 23.4895 19.3643 23.3406C19.4338 23.3035 19.5028 23.2659 19.5719 23.2274C19.8262 23.0856 20.0763 22.9376 20.3192 22.7801C20.4067 22.7238 20.4923 22.6643 20.5788 22.6052C20.7863 22.4639 20.99 22.3181 21.1881 22.1655C21.2321 22.132 21.2793 22.1029 21.3224 22.0685L21.7549 21.7267L21.7421 21.7164C24.3563 19.4656 26 16.2218 26 12.621ZM0.945455 12.621C0.945455 6.33157 6.35298 1.21491 13 1.21491C19.647 1.21491 25.0545 6.33157 25.0545 12.621C25.0545 16.0102 23.4827 19.0572 20.9943 21.1479C20.8553 21.0571 20.7154 20.9757 20.5721 20.9077L16.5696 19.0143C16.2103 18.8443 15.9872 18.5026 15.9872 18.1228V16.8002C16.0798 16.6919 16.1777 16.5694 16.2788 16.4347C16.7969 15.7423 17.2125 14.9721 17.5155 14.1432C18.1144 13.8739 18.5011 13.3094 18.5011 12.672V11.0864C18.5011 10.6986 18.3508 10.3224 18.0818 10.0267V7.93916C18.1064 7.70701 18.1934 6.39687 17.1917 5.3162C16.3204 4.37508 14.9103 3.89871 13 3.89871C11.0897 3.89871 9.67956 4.37508 8.80833 5.31575C7.80662 6.39643 7.8936 7.70657 7.91818 7.93872V10.0263C7.64967 10.3219 7.49887 10.6981 7.49887 11.0859V12.6716C7.49887 13.1641 7.7324 13.6234 8.13233 13.9334C8.51524 15.3527 9.30327 16.4271 9.59447 16.7912V18.0857C9.59447 18.4507 9.38411 18.7862 9.04516 18.9615L5.30731 20.8907C5.18818 20.952 5.07 21.0236 4.95182 21.1036C2.49411 19.0138 0.945455 15.9856 0.945455 12.621ZM20.0715 21.8497C19.9061 21.9633 19.7378 22.0734 19.5671 22.1785C19.4887 22.2268 19.4107 22.2751 19.3308 22.3221C19.1076 22.4527 18.8807 22.577 18.6491 22.6933C18.598 22.7188 18.5465 22.743 18.495 22.768C17.9627 23.0261 17.412 23.248 16.8461 23.4282C16.8263 23.4345 16.8064 23.4412 16.7861 23.4475C16.4897 23.5405 16.1895 23.6233 15.886 23.6944L15.8832 23.6948C15.5768 23.7664 15.2667 23.8259 14.9547 23.8747C14.9462 23.876 14.9377 23.8778 14.9292 23.8791C14.6356 23.9243 14.3397 23.957 14.0428 23.9816C13.9904 23.986 13.9379 23.9892 13.8849 23.9927C13.5914 24.0138 13.2964 24.0272 13 24.0272C12.7003 24.0272 12.4015 24.0133 12.1042 23.9923C12.0527 23.9887 12.0011 23.9856 11.9501 23.9811C11.6504 23.9561 11.3521 23.9225 11.0566 23.8769C11.0434 23.8747 11.0301 23.8724 11.0169 23.8702C10.392 23.7713 9.77695 23.626 9.178 23.4359C9.15956 23.43 9.14065 23.4238 9.12222 23.418C8.82487 23.3222 8.53084 23.2162 8.242 23.099C8.24011 23.0981 8.23775 23.0972 8.23586 23.0963C7.96262 22.985 7.69458 22.8615 7.42985 22.7314C7.39535 22.7144 7.36036 22.6983 7.32633 22.6808C7.08476 22.5587 6.8484 22.4267 6.61535 22.289C6.54633 22.2478 6.47778 22.2062 6.40971 22.1642C6.19509 22.0313 5.98331 21.8931 5.7772 21.7468C5.75593 21.7316 5.7356 21.7155 5.71433 21.7003C5.72945 21.6923 5.74458 21.6842 5.75971 21.6762L9.49756 19.747C10.1405 19.4151 10.5399 18.7786 10.5399 18.0857L10.5395 16.4745L10.4307 16.3502C10.4203 16.339 9.39829 15.1626 9.01207 13.5698L8.96905 13.3926L8.80785 13.2938C8.58047 13.1547 8.44433 12.9221 8.44433 12.6711V11.0855C8.44433 10.8775 8.53745 10.6838 8.70764 10.5384L8.86364 10.4051V7.91367L8.85938 7.85507C8.85796 7.84434 8.71851 6.76858 9.51931 5.90485C10.2029 5.1677 11.3743 4.79331 13 4.79331C14.6196 4.79331 15.7872 5.16456 16.4727 5.89635C17.2725 6.75114 17.1416 7.84702 17.1406 7.85597L17.1364 10.406L17.2924 10.5393C17.4621 10.6842 17.5557 10.8784 17.5557 11.0864V12.672C17.5557 12.991 17.3264 13.2804 16.9974 13.3765L16.7624 13.445L16.6868 13.6664C16.4079 14.4863 16.0108 15.2436 15.5069 15.9172C15.383 16.0827 15.2625 16.2294 15.1589 16.3417L15.0417 16.4683V18.1228C15.0417 18.8439 15.4653 19.4925 16.1469 19.8145L20.1495 21.7079C20.1751 21.72 20.2001 21.7325 20.2252 21.7451C20.1746 21.7813 20.1226 21.8148 20.0715 21.8497Z"/>
</mask>
<path d="M26 12.621C26 5.83865 20.168 0.320312 13 0.320312C5.83204 0.320312 0 5.83865 0 12.621C0 16.2035 1.62807 19.4325 4.21956 21.6824L4.20727 21.6927L4.62895 22.0291C4.65636 22.051 4.68615 22.0689 4.71356 22.0904C4.93764 22.2662 5.16975 22.433 5.40611 22.5945C5.48269 22.6468 5.55927 22.6991 5.63727 22.7501C5.88971 22.9147 6.14876 23.0709 6.41349 23.2189C6.47116 23.2511 6.52931 23.2824 6.58745 23.3137C6.87724 23.4698 7.17316 23.617 7.47618 23.7521C7.4984 23.7619 7.52109 23.7709 7.54331 23.7807C8.53084 24.215 9.58502 24.534 10.6874 24.7223C10.7163 24.7272 10.7451 24.7321 10.7744 24.737C11.1167 24.793 11.4627 24.8377 11.813 24.8677C11.8555 24.8712 11.8981 24.8735 11.9411 24.8771C12.29 24.9043 12.6426 24.9218 13 24.9218C13.3541 24.9218 13.7034 24.9043 14.0504 24.8779C14.0944 24.8744 14.1383 24.8721 14.1823 24.8686C14.5297 24.8386 14.8729 24.7952 15.2119 24.7402C15.2412 24.7353 15.271 24.7303 15.3003 24.725C16.3861 24.5407 17.4252 24.2289 18.4 23.8058C18.4359 23.7901 18.4723 23.7754 18.5082 23.7592C18.7999 23.6295 19.0849 23.4895 19.3643 23.3406C19.4338 23.3035 19.5028 23.2659 19.5719 23.2274C19.8262 23.0856 20.0763 22.9376 20.3192 22.7801C20.4067 22.7238 20.4923 22.6643 20.5788 22.6052C20.7863 22.4639 20.99 22.3181 21.1881 22.1655C21.2321 22.132 21.2793 22.1029 21.3224 22.0685L21.7549 21.7267L21.7421 21.7164C24.3563 19.4656 26 16.2218 26 12.621ZM0.945455 12.621C0.945455 6.33157 6.35298 1.21491 13 1.21491C19.647 1.21491 25.0545 6.33157 25.0545 12.621C25.0545 16.0102 23.4827 19.0572 20.9943 21.1479C20.8553 21.0571 20.7154 20.9757 20.5721 20.9077L16.5696 19.0143C16.2103 18.8443 15.9872 18.5026 15.9872 18.1228V16.8002C16.0798 16.6919 16.1777 16.5694 16.2788 16.4347C16.7969 15.7423 17.2125 14.9721 17.5155 14.1432C18.1144 13.8739 18.5011 13.3094 18.5011 12.672V11.0864C18.5011 10.6986 18.3508 10.3224 18.0818 10.0267V7.93916C18.1064 7.70701 18.1934 6.39687 17.1917 5.3162C16.3204 4.37508 14.9103 3.89871 13 3.89871C11.0897 3.89871 9.67956 4.37508 8.80833 5.31575C7.80662 6.39643 7.8936 7.70657 7.91818 7.93872V10.0263C7.64967 10.3219 7.49887 10.6981 7.49887 11.0859V12.6716C7.49887 13.1641 7.7324 13.6234 8.13233 13.9334C8.51524 15.3527 9.30327 16.4271 9.59447 16.7912V18.0857C9.59447 18.4507 9.38411 18.7862 9.04516 18.9615L5.30731 20.8907C5.18818 20.952 5.07 21.0236 4.95182 21.1036C2.49411 19.0138 0.945455 15.9856 0.945455 12.621ZM20.0715 21.8497C19.9061 21.9633 19.7378 22.0734 19.5671 22.1785C19.4887 22.2268 19.4107 22.2751 19.3308 22.3221C19.1076 22.4527 18.8807 22.577 18.6491 22.6933C18.598 22.7188 18.5465 22.743 18.495 22.768C17.9627 23.0261 17.412 23.248 16.8461 23.4282C16.8263 23.4345 16.8064 23.4412 16.7861 23.4475C16.4897 23.5405 16.1895 23.6233 15.886 23.6944L15.8832 23.6948C15.5768 23.7664 15.2667 23.8259 14.9547 23.8747C14.9462 23.876 14.9377 23.8778 14.9292 23.8791C14.6356 23.9243 14.3397 23.957 14.0428 23.9816C13.9904 23.986 13.9379 23.9892 13.8849 23.9927C13.5914 24.0138 13.2964 24.0272 13 24.0272C12.7003 24.0272 12.4015 24.0133 12.1042 23.9923C12.0527 23.9887 12.0011 23.9856 11.9501 23.9811C11.6504 23.9561 11.3521 23.9225 11.0566 23.8769C11.0434 23.8747 11.0301 23.8724 11.0169 23.8702C10.392 23.7713 9.77695 23.626 9.178 23.4359C9.15956 23.43 9.14065 23.4238 9.12222 23.418C8.82487 23.3222 8.53084 23.2162 8.242 23.099C8.24011 23.0981 8.23775 23.0972 8.23586 23.0963C7.96262 22.985 7.69458 22.8615 7.42985 22.7314C7.39535 22.7144 7.36036 22.6983 7.32633 22.6808C7.08476 22.5587 6.8484 22.4267 6.61535 22.289C6.54633 22.2478 6.47778 22.2062 6.40971 22.1642C6.19509 22.0313 5.98331 21.8931 5.7772 21.7468C5.75593 21.7316 5.7356 21.7155 5.71433 21.7003C5.72945 21.6923 5.74458 21.6842 5.75971 21.6762L9.49756 19.747C10.1405 19.4151 10.5399 18.7786 10.5399 18.0857L10.5395 16.4745L10.4307 16.3502C10.4203 16.339 9.39829 15.1626 9.01207 13.5698L8.96905 13.3926L8.80785 13.2938C8.58047 13.1547 8.44433 12.9221 8.44433 12.6711V11.0855C8.44433 10.8775 8.53745 10.6838 8.70764 10.5384L8.86364 10.4051V7.91367L8.85938 7.85507C8.85796 7.84434 8.71851 6.76858 9.51931 5.90485C10.2029 5.1677 11.3743 4.79331 13 4.79331C14.6196 4.79331 15.7872 5.16456 16.4727 5.89635C17.2725 6.75114 17.1416 7.84702 17.1406 7.85597L17.1364 10.406L17.2924 10.5393C17.4621 10.6842 17.5557 10.8784 17.5557 11.0864V12.672C17.5557 12.991 17.3264 13.2804 16.9974 13.3765L16.7624 13.445L16.6868 13.6664C16.4079 14.4863 16.0108 15.2436 15.5069 15.9172C15.383 16.0827 15.2625 16.2294 15.1589 16.3417L15.0417 16.4683V18.1228C15.0417 18.8439 15.4653 19.4925 16.1469 19.8145L20.1495 21.7079C20.1751 21.72 20.2001 21.7325 20.2252 21.7451C20.1746 21.7813 20.1226 21.8148 20.0715 21.8497Z" fill="white" stroke="white" stroke-width="2" mask="url(#path-1-inside-1)"/>
</svg>
