<svg width="16" height="16" viewBox="0 0 16 16" fill="none" xmlns="http://www.w3.org/2000/svg">
<path d="M15.8598 15.184L11.9716 11.2958C13.0146 10.0967 13.6461 8.53215 13.6461 6.82217C13.6461 3.05809 10.5844 0 6.82388 0C3.0598 0 0.00170898 3.06164 0.00170898 6.82217C0.00170898 10.5827 3.06335 13.6443 6.82388 13.6443C8.53386 13.6443 10.0984 13.0129 11.2975 11.9698L15.1857 15.8581C15.278 15.9503 15.4022 16 15.5228 16C15.6434 16 15.7676 15.9539 15.8598 15.8581C16.0443 15.6736 16.0443 15.3685 15.8598 15.184ZM0.956033 6.82217C0.956033 3.5867 3.58841 0.957871 6.82033 0.957871C10.0558 0.957871 12.6846 3.59024 12.6846 6.82217C12.6846 10.0541 10.0558 12.69 6.82033 12.69C3.58841 12.69 0.956033 10.0576 0.956033 6.82217Z" fill="white"/>
</svg>
